<svg id="заяц" xmlns="http://www.w3.org/2000/svg" width="102.44" height="97.73" viewBox="0 0 102.44 97.73"><defs><style>.cls-1{fill:#001055;}</style></defs><path class="cls-1" d="M-2.79-17.42c3-8.77-9.37-14.89-9.37-14.89,6.81-11.92-11.57-28.34-15.31-28.17S-30-52.82-30-52.82h-1.36C-41.6-63.8-46-58.7-46-58.7c-7.83,9.79,12.94,26,8.6,26.39s-7.66,6.12-7.66,6.12l-3.58-2.89v5.53H-52.5c-.68,2.64,1.88,8.68,1.88,8.68l-3.15-.34c-1,2.22.76,9,.76,9C-70-7.72-75-3.8-75.89-2.61s-4.86,0-4.86,0,3.06-6.3,4.59-8.68-4.17-7.49-4.17-7.49L-82.45-15l-2.22-3.74-4.08,5.45.17,2.72,3.91-2.72,2,2,2.21-1C-79.39-4.65-88.24,1-88.24,1c1.53,2.05,5.11,21.45-1.19,23.15S-101,21.56-101,21.56s-2.81,3.66,4.51,6.21,20.17-2,20.17-2c.94,5.11,6,8,10.64,9.79s27.49-.34,30.56.76a16.69,16.69,0,0,0,8,.77c1.19-.34.51-3.49.51-3.49s5.87.34,5.78-2S-26,29.3-26,29.3s3.75-1.36,2-3.83-8.34-.85-8.34-.85c.42-2-1.45-5.1-3.58-5.1s-1.95,5.87-8.42,7.4-13.53-.76-14.89-1.87,1.1-1.62,1.1-1.62c13.53-.34,21.28-12.34,21.28-12.34l2-1.45,3.06.43c6.3,2.64,10.47-.34,10.47-.34l3.41-1.28c8.08.17,8.68-7.06,9.87-7.91A3.31,3.31,0,0,0-7-2.19,99.23,99.23,0,0,0-.84-9.93C4-16.31-2.79-17.42-2.79-17.42Zm-50.6,47.26s12.57,1.15,17-5.75c0,0,2.81-2.29,2.05,2.91,0,0,5.93-1.19,6.7.16s-3.07,2.48-3.07,2.48,5.37.58,5.17,1.92-5.8,1-5.8,1,.76.64,0,1.92-1.73-.39-5.56-.9-23.93,2.24-31.4-2.93S-75.79,19.56-73,17.39s7.54,4.34,7.54,4.34S-63.54,29.07-53.39,29.84ZM-3.56-11.62c-2.06.06-4,2.43-4,2.43l.78,2.79-1.42-.34a3.77,3.77,0,0,0-2.12,2.33l-1.28-1.5a9.46,9.46,0,0,1,7.4-6.32A.68.68,0,0,1-3.56-11.62ZM-25.4,7.08c-.49-.39-.31-1.45.42-2.36s1.71-1.33,2.21-.93.31,1.45-.42,2.36S-24.9,7.48-25.4,7.08ZM-20,7.4c-.73.91-1.72,1.33-2.21.93s-.32-1.45.41-2.36,1.72-1.33,2.21-.93S-19.31,6.49-20,7.4Zm2.9-1.5a7.17,7.17,0,0,0,.31-2.81c1.47.38,7.92-2.3.83-4.4s-3.06,1.78-5.36,3S-28.43,1.5-28.94-.8s-2.24-2.36-2.24-2.36C-33.54-3-33.6,1.05-33.6,1.05l3.89.13s1.85,1.4,1,2.68,2.23,4.34,2.23,4.34c-1.15.51-5.68-.39-8.42-1.34S-38,1.94-39.35,1.62-39.22,6-39.22,6s-2.55-.9-2.94.57,3.77,3.58,3.77,3.58C-42.09,15.92-52,18.47-54,17s6.12-8.24,8-9.71,3.45-7.66,3.45-7.66-4.73-2-6.55-3.77,0-4.59,0-4.59c-1.69-.38-2.26-3.38-2.26-3.38,1.4.7,4.53.54,4.53.54-1.72-1-3.56-7.63-3.56-7.63l3.28.31-.1-.31c-.64-1.85.76-4.4.76-4.4l2,1.72a58.49,58.49,0,0,1,4.79-6.89c2.68-3.26,9.26-2.49,9.26-2.49l-.58-1.6-3.7-1-8.62-13.21s-7-12.7,3.71-9.06,16.91,21.38,16.91,21.38L-26-34.7c-2.23-8.42-14-17.55-14-17.55s1,2.17,5.11,7,7.47,13,7.47,13,5.23-2.05,15.32,4.08,6.64,13.47,6.64,13.47c-5.61,1.12-7.85,8.23-7.85,8.23-1.66-.32-8.56-.25-8.56-.25l-.57-1.15c4.15-3.06,4-9,4-9,4.53,0,6.13-3.06,6.13-3.06-1.28.51-4.28-.2-4.28-.2,1.21-1.27,1-3.63,1-3.63a5.69,5.69,0,0,1-5.3,3.06c-1-2.87-3.19-2.36-3.19-2.36-4.91-.64-9.32,10-9.32,10l-5,1c13.18,5.05,14,8.42,14,8.42l2.3-.57c1-2.49,8.62-.45,8.62-.45A6.16,6.16,0,0,1-10.3.73C-10.3,4.69-17.58,6.6-17.13,5.9Zm-7.73-17.52-2.49.29L-28-9.48l-4.72-2.14c5-9.6,9.44-7.69,9.44-7.69a2.73,2.73,0,0,1,1.92,1.53c-4-.26-4.79,4.34-4.79,4.34Z" transform="translate(101.54 60.48)"/></svg>