<svg id="заяц_лапа_низ" data-name="заяц лапа низ" xmlns="http://www.w3.org/2000/svg" width="39.05" height="60.83" viewBox="0 0 39.05 60.83"><defs><style>.cls-1{fill:#001055;}</style></defs><path class="cls-1" d="M33.88,37.45c-3.06-2.47-3.32-3.75-2.72-6.39A2.22,2.22,0,0,0,29,28.25a7.36,7.36,0,0,0-4.26,4.43S22,31.49,17.88,35.4,12,42.89,7.75,46.38s2.73,10.9,10.22,13S33.8,61.45,36.52,58s-1.87-8.09-1.87-8.09S36.94,39.91,33.88,37.45ZM33.8,55.74C32.26,59.06,18.32,60.53,12.6,54s-.17-10,9.32-7.83c0,0,1.92.85-1.15,1.95s-3.36,5.62.87,6.3,5.94-1.44,4.33-5.61c0,0,.25-1.45,1.19-1.2S35.33,52.42,33.8,55.74Z"/><path class="cls-1" d="M38.56,18.89c-1.45-3.23-1-2.55-3.91-4.93S5-4.6.05,1.28C.05,1.28-2,9.52,20.6,17.1c0,0-.59,10.13,2.56,10.13s4.68-4.42,4.68-4.42,4.93,6,6.17,6.21,1.74-1.87,1.74-1.87a2.16,2.16,0,0,0,2-3.07A4.43,4.43,0,0,0,38.56,18.89Zm-3.4,4.51c-.6-.25-.09,1.54-.68,2.64S32.09,26,30.73,23,27,18.47,27.16,20.17s-1.79,4.6-3.49,4.6-.6-8.69-.6-8.69C-.42,7.23,3.58,3.36,3.58,3.36,5.2-1.2,29,12.85,33.2,15.91s.85,1.54,2.3,4.34S35.75,23.66,35.16,23.4Z"/></svg>