<svg id="заяц_верх_лапа" data-name="заяц верх лапа" xmlns="http://www.w3.org/2000/svg" width="67.5" height="45.3" viewBox="0 0 67.5 45.3"><defs><style>.cls-1{fill:#001055;}</style></defs><path class="cls-1" d="M60.07-26.47c-1.18-4.26-7.61-3.31-7.61-3.31S45.83-37.56,42-36.57s-5,.43-6.75-1.62-3.52,0-3.52,0a7.33,7.33,0,0,0,1,6s-2.63,1.55-1.92,7.16,2.51,9.18,2.78,14.67S44-6,50.17-10.71,61.25-22.2,60.07-26.47ZM42.6-9.65c-8.68.67-8.1-5.79-.73-12.14,0,0,1.82-1,.89,2.08s2.5,6.05,5.57,3.06,2.38-5.63-1.93-6.82c0,0-1-1.07-.25-1.67s8.76-3.67,10.52-.46S51.29-10.32,42.6-9.65Z" transform="translate(7.26 51.92)"/><path class="cls-1" d="M35.33-41.7c.88-.89-.46-2.51-.46-2.51a2.15,2.15,0,0,0-1.24-3.47,4.46,4.46,0,0,0-3.72-3.71c-3.46-.76-2.66-.7-6.29.21S-8.93-38.46-7.18-31c0,0,5.37,6.59,25-7.08,0,0,7.79,6.52,9.66,4s-.76-6.39-.76-6.39S34.46-40.81,35.33-41.7Zm-11.19.23c1.47.88,2.63,4.18,1.61,5.54s-7.32-4.69-7.32-4.69C-2.68-27-3.41-32.56-3.41-32.56c-2.69-4,22.79-14.77,27.74-16.3s1.73.23,4.85.74,2.89,1.83,2.33,2.15,1.18,1,1.71,2.12S31.73-42,28.53-42.67,22.67-42.35,24.14-41.47Z" transform="translate(7.26 51.92)"/></svg>