<svg id="цыпленок-4" xmlns="http://www.w3.org/2000/svg" width="19.83" height="25.01" viewBox="0 0 19.83 25.01"><defs><style>.cls-1{fill:#001055;}</style></defs><path class="cls-1" d="M458.51,268.46l-3.28-1.2a4.58,4.58,0,0,0-5.28-3.52c-4.51.46-4.59,5.82-1.53,8.46L449.7,276l-4.43.94-1-1.33-1.28-2-.76,2h-3l1.79,3-.17,2.21-1.62.34v1.62l3.83.76,1.53.43.09,4,5,.68-3-2-.09-2.38s5,1.36,6.9-.17l3.57-.17,1.11,1.36.85-6.89-2.38,3.57-3.64-.51s2.23-3.16,0-4.94v-3.06l1.45-1.68,3.57-.22-1.38-1.76Z" transform="translate(-439.23 -263.7)"/></svg>