<svg id="цпленок-3" xmlns="http://www.w3.org/2000/svg" width="23.76" height="27.98" viewBox="0 0 23.76 27.98"><defs><style>.cls-1{fill:#001055;}</style></defs><path class="cls-1" d="M418.72,262.43l-1.26-2.71-1.1,2.71s-5.22-1.79-8,1.79-.59,6.87,2.05,8.63l.85,3.11-5.84.77-3.27-3.88v4.56l-2.47.77.43,1.87,6.81.76-.68,3,.25,2-3.66.51.43,1,6.89.4-1.22-1.36-.4-1.45s6.1,1.62,9.1-3.75h3.5l.6,2.22.93-.94.79-6.3-2,3.07L416,279,414,276.39v-2s8.71-1.45,5.35-7.75l2.68-3.23Z" transform="translate(-399.65 -259.72)"/></svg>