<svg id="ципленок-1" xmlns="http://www.w3.org/2000/svg" width="75.68" height="59.29" viewBox="0 0 75.68 59.29"><defs><style>.cls-1{fill:#001055;}</style></defs><path class="cls-1" d="M330.62,295.81l-12,3.19-4.85-5.28L310.53,299l-7.66-2.64,6,8.38-8.08,9.41h7v4.13l7.83-4.13,7.66,5.49.25-6.13,8.17,1.72-8.34-10.49Zm-6.22,14.28h-3.2l-1.05,2.83-3-2.39-5.87,2.39v-2.83l-3-.41,5.28-3.06L311.3,302l2.55.38.34-2.84,2.72,2.46,4.86-1-2.39,3.24Z" transform="translate(-281.34 -260.35)"/><path class="cls-1" d="M348.27,306.68c-1-3.86-6.93-5.25-6.93-5.25l-3,2.55,2.81,2.7-2.81,1.39,2.38,1.61-2.38,3.24C341.51,313,349.26,310.53,348.27,306.68Zm-4.91,3.41-.66-1.34.66-2.07-1.17-1.17.51-1.61s2.9.64,3.15,2.32S346.58,309.68,343.36,310.09Z" transform="translate(-281.34 -260.35)"/><path class="cls-1" d="M290.87,300.58l1.28-1.58h-2.21s-7.92,1.07-8.6,5.32c0,0,.26,5.68,9.28,5.77l-1.71-2.57,2.64-1.51-.93-2.11,3.06-1.54Zm-3.36,5.36v2.13s-3.79-1.19-3.79-3.33,5.45-3.74,5.45-3.74l-.09,2.3.86,1.44Z" transform="translate(-281.34 -260.35)"/><polygon class="cls-1" points="23.32 30.36 23.32 33.37 28.68 33.37 28.68 31.16 25.36 31.16 23.32 30.36"/><rect class="cls-1" x="33.04" y="28.93" width="3.79" height="3.79"/><rect class="cls-1" x="31.15" y="27.64" width="3.79" height="3.79"/><path class="cls-1" d="M336.51,290.1v-3l4.08-.63a4.15,4.15,0,0,1-.51-3s-4.59,1.36-6.72,0-1.53-2.23-1.53-2.23h-2.05l-1.27,2-1.79,1.56-2-2.49-3.15-.09,3.91-2.13-.76-1.87h3.83s-.85-3.91,0-6l2.55,1.45,4.6.09-.52-2.81s-6.29-2,.09-7.07l2.64,8.94,3.23-.17v-2.55a7.07,7.07,0,0,1,1.11-7.65c3.15-4,10.21-2,11.49,2.28l3.32.6-2.9,1.36,2.46,2.22h-3.31s-1.36,5.1-7.66,4.08l-1.27,1.28.68.89s6.29-.64,7.4,2a10.69,10.69,0,0,1,.43,5.7l-5.79-3.06v-2.22h-2.72s.34,3-1.37,3.65l2,5.85h-3.19l-3.2,1.07,2.39,2.71-2.64-.82Z" transform="translate(-281.34 -260.35)"/></svg>