<svg id="ципленек-2" xmlns="http://www.w3.org/2000/svg" width="22.71" height="25.76" viewBox="0 0 22.71 25.76"><defs><style>.cls-1{fill:#001055;}</style></defs><path class="cls-1" d="M375,264.08l1.26,2.89-2.64.43,1.38,1.28s-1.21,3,4.24,4.85l-.34,2.55H375l-4.95-3.23-.43,3.23-2.47.68,3.58,2,1,3.24-2.7,1.44-4.35-.59,2.91,1.62,1.44,2.08.77-1.91,2.16-.77a19.22,19.22,0,0,0,4.56,1.11v2.64l-2.29.59,6.89.7-2.84-1.64V285.7s5-1.11,5-4.85-1.62-3.66-1.62-3.66l.25-2.64s4.18.25,5.37-4.94-5.54-6.41-5.54-6.41a7.73,7.73,0,0,0-4,.88Z" transform="translate(-364.69 -263.19)"/></svg>