<svg id="волка_правый_верх_корзниа" data-name="волка правый верх корзниа" xmlns="http://www.w3.org/2000/svg" width="70.86" height="62.72" viewBox="0 0 70.86 62.72"><defs><style>.cls-1{fill:#001055;}</style></defs><path class="cls-1" d="M301.54,167.23s12.38-11.36,10.21-20.68c0,0-.76-6.51-16.85-6.25,0,0,.9-24-11.49-24.05,0,0-4.59-.08-6.51,2.22a46.2,46.2,0,0,0-12.89,2.1c-7.53,2.24-23.11,7.85-20.94,10.66s2.68,1.92,11.24,3.58,5.87,4.85,10.21,6,4.59,2.94,1,4-8.3,5.23-7.79,8.42,4.73,10.47,9.71,11.87-11,6.45-11,6.45-15.71,4-15.32,5.94,19.15,1.85,22.85.73c0,0,13.4-.42,19.79,0,0,0,4.72-.86,6.12-2.14s8.17.77,11.62-2.68S303.71,168.64,301.54,167.23Zm-16.17-44.85c6.21,1.62,4.85,17.53,4.85,17.53h-4.75c1-1.36-1.07-6-1.07-6,1.83-1.7-1.07-5.45-1.07-5.45C286.14,127.4,285.37,122.38,285.37,122.38Zm-3.74-.17c2.55,1,0,4.2,0,4.2l-5.05.48C275,123.83,279.07,121.19,281.63,122.21Zm-7.24,10.3c0-1.12,2.13-2.13,4.77-1.7s3.23,2.38,2.21,3.57-4.34.85-5.87.43S274.39,132.51,274.39,132.51Zm-.05,5.11h6.35s1.27,2.55-1.19,3.23-9.64,1.19-5.8-3.23Zm-6.88,2.29c-2.56,0-7.54-5.49-8.81-6.78s-6.77-.24-7.28-2,6.51-2.94,6.51-2.94c4.68-.26,14-9.7,15.41-5.28s-1.37,6.3-1.37,6.3-4.42-5.28-4-2.78-2.46,6.72-2.46,6.72l4.68.91C271.8,136.59,270,139.91,267.46,139.91Zm26.42,30.39c3.45.12,6.77-1.66,7-.64s-2,3.83-7.53,3.45-3.7,2-10.21,2.55-15.45-1.66-22.85,0c0,0-8.68.64-1.41-2.43S274,166.72,274,166.72c2-.76,3.32-1.15,2-3.32s-4.34-10.21-2-11.1,6.89-2.3,6.89,2-.26,10.08,2.3,9.06,7.66-10.72,11.1-10.46,5,2.29,2.81,5.23-7.53,6.64-6.38,6.89,6.25-2.86,9.45-6,5.49,4.19,0,7S290.43,170.17,293.88,170.3Z" transform="translate(-241.15 -116.25)"/></svg>