<svg id="волк_правый" data-name="волк правый" xmlns="http://www.w3.org/2000/svg" width="107.46" height="167.21" viewBox="0 0 107.46 167.21"><defs><style>.cls-1{fill:#001055;}</style></defs><path class="cls-1" d="M234.56,146.81c-6.47-2.47-6.81,5.1-6.81,5.1s-3.57-1.53-7.23,2.13S210.65,159.91,210,158s-.6-4.77.85-4.77a17.14,17.14,0,0,1,2.81.26s.68-3.66-.43-5.11-.09-4.68-.09-4.68l4.52,3.66s-.86-7.15-7-10.64,4.85-3.49,7.83,0,1.36,9.36,1.36,9.36,5.7-7.57-1.11-12.51c0,0-4.7-2.87-7.57-4.4s5-3,9.19.57,5.11,9,6.45,9.32-1.47-4.6-2.69-8.36-6.89-5-6.89-5,6.83-2.81,7.34-3.51-8.3-.64-10.59,1.53-3.71-1-4.54-2.3-8.8-5.1-13.85-1.4l-5.61.89.38-7.34-5.3-3.44s-4.79,1.66-2.94,5.36.9,4.15.9,4.15l-3.26.38s-4.91-10.34-11.49-10.53-7.21,18.76-4.78,21.95-6.07-2.8-7.15,9-6,9.07-6,9.07,3.64,3.25,8.17-3.74,7.4,1.5,4,2.53-10,3.57-9.52,6.06a17.34,17.34,0,0,1,.58,5.87c-.26,1.41-.7,6.77,1.08,7.6l1.54-7.73s.25-7.66,4.27-6.38,3.77,2.75,1.73,6.7-.71,10.54,2.93,10.41c0,0-.64-4.22,2.56-2.17s1.91,5.23,0,5.61-5.47,2.56-2.61,6.13,17.67,28.47,12.18,29.94-5.36-3.51-5.36-3.51l-4.56.12c-2.57-3.35-10.6-12.85-18.29-11.89-9.32,1.17,0,19.39,0,19.39l.38,2.88s-2.81-1.95-5.23-8.33c0,0-4.09-2-4.85-3.83s-3.35-3.32-3.35-3.32v2.94l-5.59-1.42s.25,3.59,1.47,4.61c0,0-2.49,7.91,3.12,13.4s7.41,10.48,7.79,13.79,6.13,8.55,11.36,7.27,4.6-12.11,4.6-12.11,3.32-7.29.38-13.67l2.64.41c-.2.12-.38.24-.6.35,0,0,5.49,6,6.52,8.51s3.44,8.73,13.91,10.9a86.94,86.94,0,0,0,19.28,1.78l9.49,7c-5,1.7-30.93,10.86-32.77,18.69-2,8.69,11.83,12.43,29.28,12.43s17.36-.43,20.08-2.72c0,0,2,.34,2.21.85a3.43,3.43,0,0,0-1.23-2.56h3.7s-1.87-2.46-3.7-2.72c0,0-2.59-2.72-9.32-2.89,0,0-4.42-5-21.7-2.39,0,0-4.6-.08.6-2.63s28.85-7.41,31.4-8.43,5.62-1.87,4.77-6a8.82,8.82,0,0,0-3.37-5.31l3.37-2.77s-21.32-9.61-20.94-15.36,1.91-4.22-4.85-11.62c0,0-2.68-8.81-4.09-12.26s-4.21-9.57-4.08-15.32-4.85-3.06-6.77-4.21-3.79-4.64-1.15-6.08,7.92,1.27,7.92,1.27,7.74,8.68,12.76,8.6,13.2-.6,13.79-4.43-3-1.53-3.66-3.4,3.58-.94,3.58-.94a3.58,3.58,0,0,0,2.8,1c1.71-.17,5.54-3.31,4.69-5.87,0,0,7.57-6.38,2.21-12.68C235.84,157.87,241,149.28,234.56,146.81Zm-25.1,3.91c-5.28-1.1-5.11,4.77-5.11,4.77a4.38,4.38,0,0,1,.52,0c-1.11.29-1.54,1.78-1.54,1.78-1.79-2.56-3-3.07-3-3.07-2-2.2,3.31-6.23,3.37-6.28,4.68-1.06,6.46.49,6.46.49Zm-4.52-27.23c-3.57-.09-.34,3.23-3.06,2.89s-4.08-4-4.08-4C204.6,118.89,208.52,123.57,204.94,123.49Zm-17-9v4.25s-2.81,2.3-4.08-5.27Zm-4.08,7c.85-2.64,7.15,1.53,9.36,1.74s-2.55,2.68-6,.47l-.42,1.28S183,124.08,183.84,121.45ZM166,130.66c.25-9.38,1.14-19.21,5.61-14.24s8.56,6.26,12.26,11.75c0,0-4.21,2-2.17,2.81s2.93,4.47-.13,5.36-1.79-5.87-3.7-8.81-4.47-4.59-6.51-4.59c0,0,5.23,7,3.19,15.44C174.52,138.38,165.71,140,166,130.66ZM149.24,234.89c-1.83,1.62-4.8-.6-5.32-5.14s-7.61-8.39-8-11.71a49.53,49.53,0,0,1,0-7.72s3.56,5.25,3.64,7.47,3.15,7.56,5.62,9S151.07,233.28,149.24,234.89Zm2.56,4.85c-2.81.39-1.47-2.17-1.47-2.17,5.81-4.08-2.36-11.87-5-13.38s-3.45-4.62-3.58-6.15-1-4.59-2.68-5.81,0-4.66,0-4.66,5.62,7.54,7.15,11.23,6.76,7.54,9.57,12.37S154.6,239.36,151.8,239.74Zm7.66-25.31-3.58-5.71a28.8,28.8,0,0,0,.77,10.08c1.4,5.22.38,6.77-2.17,6.45s-3.32-5.5-3.32-5.5l-.13-6.57s-4.6-12.63,1.4-13.9,14,9.44,14,9.44C164.56,215.62,159.46,214.43,159.46,214.43Zm4.71,3.12a2,2,0,0,0-.19.86,2.08,2.08,0,0,0,.28,1l-.85-1S163.73,218.08,164.17,217.55Zm3.67,2.06,0,0h0Zm-1.09,2.14a1.12,1.12,0,1,1,1.12,1.11A1.12,1.12,0,0,1,166.75,221.75Zm1.72-3.34a1.12,1.12,0,1,1,1.12,1.12A1.12,1.12,0,0,1,168.47,218.41Zm-2.37,1.12a1.12,1.12,0,1,1,1.12-1.12A1.12,1.12,0,0,1,166.1,219.53Zm0,1h0a2.27,2.27,0,0,0-.34.76l-1-1.24A2.09,2.09,0,0,0,166.1,220.53Zm36.32,17.22a1.12,1.12,0,0,1,2.24,0,1.1,1.1,0,0,1-.95,1.08l-1.24-.85A1,1,0,0,1,202.42,237.75Zm5.62-4.81a1.12,1.12,0,1,1,1.12,1.12A1.12,1.12,0,0,1,208,232.94Zm.52,3.34a1.12,1.12,0,1,1-1.12-1.12A1.12,1.12,0,0,1,208.56,236.28Zm-2.24,3.33a1.12,1.12,0,1,1,1.12,1.12A1.12,1.12,0,0,1,206.32,239.61Zm-.17-1.66a2.08,2.08,0,0,0-.83,1.66,2,2,0,0,0,0,.36l-.66-.45a2.11,2.11,0,0,0,1-1.77,3,3,0,0,0,0-.42A2.11,2.11,0,0,0,206.15,238Zm14.2,30.73s4.94.26,5.45,2-5.45,6.17-21.88,4.64-19.4-4.95-19.4-4.95,27.57,4.35,34,1.12C218.48,271.49,221,270.67,220.35,268.68Zm11-20.68c-1,1.62-10.22,6-27.58,8.94,0,0-14.64,3.57-12.08,7.57s13.27-2.38,24.25,1.87c0,0,3.75,3.55-5.95,4s-28.6-1.43-29.62-4.16,8.93-11.22,29.87-18.13c0,0,7,.6,8.6-.08s-5.49-1.11-5.49-1.11,4.9-5.46,14.68-4.1l-.13.27S232.35,246.38,231.33,248Zm-23.49-23.06s13.27,11.95,20,14.21l-1.28,1.62s-8.68.51-14.55,3.82l-4.21-2.9a2.12,2.12,0,0,0,1.72-2.08,2.08,2.08,0,0,0-.83-1.66,2.39,2.39,0,0,0,.44-.46,2.1,2.1,0,1,0,.27-1.87,1.93,1.93,0,0,0-.27-.56,2.12,2.12,0,1,0-2.13-2.12,2,2,0,0,0,.4,1.22,2.06,2.06,0,0,0-.95.24,2,2,0,0,0,.18-.85,2.12,2.12,0,1,0-2.11,2.11,2,2,0,0,0,.94-.23,2.19,2.19,0,0,0-.18.85,2,2,0,0,0,.05.42,2.1,2.1,0,0,0-3.89.59l-.15-.1s-28.73-1.25-30.9-10.39l-2.47-3a2.1,2.1,0,0,0,1.64-.9,2.11,2.11,0,1,0,.27-1.86,2.26,2.26,0,0,0-.28-.56,2.12,2.12,0,0,0,0-4.24,2.14,2.14,0,0,0-1.75.92,2.12,2.12,0,0,0-1.74-.92,2.08,2.08,0,0,0-1.27.44c1.23-1.58,2.78-3.88,2.54-5.2h2.68s3.06,5.75,9.19,6.89S183.58,228.38,207.84,224.94Zm2.22,11.89a1.12,1.12,0,1,1,1.12,1.12A1.12,1.12,0,0,1,210.06,236.83Zm-4.39-3.28a1.12,1.12,0,1,1-1.11-1.12A1.11,1.11,0,0,1,205.67,233.55ZM170.49,222.3a1.12,1.12,0,1,1,1.11,1.12A1.12,1.12,0,0,1,170.49,222.3ZM220.6,174c-3.7.51-2.93-5-2.93-5h4.47S224.31,173.49,220.6,174Zm7.92,0c-3.58.48-3.06-3.73-3.06-3.73h4.72S232.09,173.56,228.52,174Zm3.66-5.86c-2,.77-6.64.51-5.79.34s3-4.85,3-4.85c-3.83,5-12.08,3.66-12.08,3.66a11.36,11.36,0,0,1-8.69-1.19,16.74,16.74,0,0,1-6.8-2.3c-3-2-7.07-3.83-10.81-2s0,5.53,8.51,7.11,2.38.47,3.74,1.32,8.43,5.61,8.43,5.61l4.42-1.19L214,177.19c-1,1.45,4.68,1.53,4.68,1.53s3,1.19-.85,2.64-5.37-.17-6.05-1.36-3.4,1.28-3.32-.34-2.12-2.55-2.12-2.55c-4.51-.52-5.88-5.2-5.88-5.2s-2.29.68-7.14.17-8.26-5.19-8.26-5.19c-.85,3.15,3.4,3.75,2.38,7.75s1.88,4.25,1.88,4.25c-.35,2.73-.35,4.17,3.4,10.22s2.38,11.74.42,12.17-5.27-1.79-9.27-5.28-9.87-17-11.32-19.83,2.81-.51,3.83-3-1.87-1.38-1.87-2.83,2.21,0,3.83,1.53a4.36,4.36,0,0,0,3.4,1.28s1.19-1.79-1.19-3.15-1.19-4.68-1.19-4.68c-3.75-2-.89-3.57-.89-3.57,4.48,1.27,5.4-.34,5.4-.34-3.58.08-7.58-4.6-4-5.62s4.42-3.15,4.42-3.15a4.12,4.12,0,0,1-4.93-.85c-3.07-7.83,5.27-6.21,5.27-6.21s-1.78-2.56,0-4.49,8.26,0,8.26,0,0-3.94,3.83-4.45,3.83,3.4,3.83,3.4c9.79-.68,10,5.54,10,5.54l-8.85.51c-1.28-3.66-6.9-3.66-9-3.66s-3.4,3.74-3.49,5.61-2.12,7.58-2.12,7.58l8.59-.94c2.86-.31,7.49,4.17,7.49,4.17l4-2.6a2.29,2.29,0,0,1,.63,1.84c-.17,5.19,5.19,2.72,5.19,2.72,8.43-6.13,12.77-6.38,14.89-6.21s1.36,4.76,1.36,4.76c4.18-2.55,5.2-.93,5.2-.93C236.43,162.55,234.14,167.4,232.18,168.17Zm-31.87-3.88v2.43h-1.92l-.59-3.32Zm-3.83-1.78v3.06s-2.75,2.3-2.71-3.06Zm1.32-16c-2.77.39-4,5.75-4,5.75h-3.55s-.13-4.09,1.79-6.55S200.56,146.17,197.8,146.55Z" transform="translate(-130.35 -109.47)"/></svg>