<svg id="волк_правий_низ_корзина" data-name="волк правий низ корзина" xmlns="http://www.w3.org/2000/svg" width="77.19" height="55.65" viewBox="0 0 77.19 55.65"><defs><style>.cls-1{fill:#001055;}</style></defs><path class="cls-1" d="M290.65,229.28c-12.26-33.2-21.45-21.79-21.45-21.79A8.46,8.46,0,0,0,259,203.91a94.58,94.58,0,0,1-14.3,3.58c-10.21-.51-20.77-7.83-17.87-1.7S250.65,222.64,256,225s6.39,4.94,4.35,6.15-4.77,1.34-8.85,0-21.79-19.6-22.13-13,8.85,18.38,12.77,20.94,8,6.3,9,12.25S268,258.83,268,258.83c26.55,2.15,34.21-17,35.44-23.6S290.65,229.28,290.65,229.28ZM273.8,211.53c2.29,1.24,1,3.79,1,3.79a29.54,29.54,0,0,0-4.85-.89C269.2,211.41,271.5,210.3,273.8,211.53Zm-1.31,7c1.51,2,0,3.83-3.12,3.63s-2.82-2.52-2.82-2.52C265.86,216.94,271,216.59,272.49,218.55Zm-.48,8.68c-.85,1.71-5,1.19-6.21.83s-.87-2.53-.87-2.53C267.21,222.47,272.86,225.53,272,227.23Zm-16.68-5.78c-3.32-.51-14.9-9.92-14.9-9.92-1.19-2.17,5.2-.89,10.47-1.15s8.17-4.17,12.26-3.66,3.49,3,3.15,5.53-3.83,3-6.13,3.92,3.49,3.91,2.3,5.28S258.65,222,255.33,221.45Zm19,23.14c-8.94-1.1-.85,3.24,3.83,3.24s7.15,2.3,4.85,3.83-8.28-2.13-13.2-1.87,1.37,3.66,1.79,3.66,2.11,1.87-1.79,1.87-12.59-2-17.36-9.11-11.23-13.36-11.83-16.93,3.83,0,3.83,0,10.39,8.34,13.71,8.17,15.06-5.36,20.25-4.09-3.06,4.26-6.81,4.51-3.49,4.6,4.34,3.58,8.85.08,9.11,1.44S283.24,245.7,274.31,244.59Zm1.61-15.31s2.05-2.81,0-4.77c0,0,3.41-3.66,0-6.47,0,0,4.26-.34,3.58-2.72,0,0,4.42,2,6.3,13.19Z" transform="translate(-226.33 -203.35)"/></svg>