<svg id="волк_левый_верхняя_корзина" data-name="волк левый верхняя корзина" xmlns="http://www.w3.org/2000/svg" width="90.37" height="71.68" viewBox="0 0 90.37 71.68"><defs><style>.cls-1{fill:#001055;}</style></defs><path class="cls-1" d="M27.07,161.36a3,3,0,0,1,.9-3.19c1.53-1.15.38-5.23,1.66-4.85S36.77,161,39.46,161,35.37,138.89,28,125.87s-20.68-7.53-20.68-7.53S4,109.28-9.82,111.06s-12.89,22.34-7.28,33.32l-14.42,7s6.12,20.43,20.68,23.49,24.5-1.4,24.5-1.4,6.58-.9,19.39,2.93c0,0,23.75,7.79,25.67,5.75S40,167.62,27.07,161.36Zm-3.32-35.62C32.31,136.21,37,157.15,37,157.15s-21.45-20-19.5-22.73.48-7-1.56-7.91S11.5,128,11.5,128l-5.11-3.57S15.2,115.28,23.75,125.74ZM3.41,136.17c.26-1.28,6.22-1.7,6.22-1.7s2.29-1.7,4-1.19.05,4.08-4,6S3.16,137.45,3.41,136.17Zm-2-3.92c-2.81-2.72,1.79-4.76,1.79-4.76C9.8,127,10,131.4,10,131.4S4.18,135,1.37,132.25Zm1.36-7.66c-1.44,2.39-4,2.22-5.7-.59s5.7-4.34,5.7-4.34C6.9,119.91,4.18,122.21,2.73,124.59Zm-16.38-3.82C-9.06,113.11-1,116.55-1,116.55s-7.15,3.19-5.36,6.39A11.4,11.4,0,0,0-2,127.4s-1.79,6.13,2.55,6.77c0,0-2.81,3.32-1.53,4.47l-10.22,3.44S-18.25,128.42-13.65,120.77ZM49.8,178c-1.28.89-23.88-7.54-30.64-7.54S3.2,176.94-6,173.87s-8.43-2.93-7.79-5,6.38,2.56,8.94,1.79-7.84-3.83-9.29-5.62-.93-5.35,3.16-4.14,7.53,4.78,9.19,3.76-12-5.62-12.25-7.66-.77-7.53,4.21-5.62S3.2,161,8.05,157c0,0,3.32-2.94,2.17-5s-3.7-6,1.15-7.91,7.92,5.49,7.4,8.55.52,8.43,11.75,13.53S51.07,177.06,49.8,178Z" transform="translate(31.52 -110.83)"/></svg>