<svg id="волк_левый_нижняя_лапа" data-name="волк левый нижняя лапа" xmlns="http://www.w3.org/2000/svg" width="90.52" height="71.53" viewBox="0 0 90.52 71.53"><defs><style>.cls-1{fill:#001055;}</style></defs><path class="cls-1" d="M49.67,206.3c-3.19-3.07-10,5.74-22.85,5.74l-9.07,1.66s-1.91-5.11,3.32-6.13,22.6-2.93,24.51-4.21,1.66-4.08-1-4.08c-5.83,0-36.89-2.43-54.38,4.85s-4.47,18.3-4.47,18.3-3.19,10.3-2.94,12.72c0,0-22.34-.64-22.72,10s8.81,23.37,24.51,25.09,29-7,31-14.53a12.6,12.6,0,0,0-3.06-12.22s9.45.34,10.34-4.3,10.47-19.83,23.62-25.45C46.48,213.7,52.86,209.36,49.67,206.3Zm-63.87,5.61c1.78-10.12,31.66-10.45,31.94-10.46,6-.29,2.35,4.34-2.16,6s-6.21,7.58-8,8.51S6,212,4.18,210.55s-2.55.26-2,4S0,216.59,0,216.59c-2.3-5.27-3.24-4.68-4.68-4.42s1.61,7.49-.85,7.83-1.37-6.21-3.07-6.38-1.19,6.72-1.19,6.72S-16,222-14.2,211.91ZM-.59,237.28c-3.32-2.56-11.57-2.13-11.57-2.13a15.07,15.07,0,0,1,3.49-9.85c4.85-3,6.64.74,4.76,2.69s.6,4.86,3.75,6.66S-.59,237.28-.59,237.28Zm23.32-7c-1.36,2.18-3.57,8-11.15,9.49s-12.34-1.53-7.66-2.46,7.41-3.92,4-3.58-6.12-.25-6.78-3,6.36-.08,7.38-3.14-5.87-3.5-5.28-5.88,6.81.17,8.51,0,1.19-5.45,1.19-5.45c12.26.17,20.26-3.4,21.37-.76S24.09,228.08,22.73,230.25Z" transform="translate(39.96 -198.89)"/></svg>