<svg id="волк_левый" data-name="волк левый" xmlns="http://www.w3.org/2000/svg" width="114.77" height="157.84" viewBox="0 0 114.77 157.84"><defs><style>.cls-1{fill:#001055;}.cls-2{fill:none;}</style></defs><path class="cls-1" d="M59.84,231.82A2.12,2.12,0,1,1,62,229.7,2.12,2.12,0,0,1,59.84,231.82Zm0-3.24A1.12,1.12,0,1,0,61,229.7,1.12,1.12,0,0,0,59.84,228.58Z" transform="translate(-27.97 -112.54)"/><path class="cls-1" d="M61.56,228.48a2.12,2.12,0,1,1,2.12-2.11A2.12,2.12,0,0,1,61.56,228.48Zm0-3.23a1.12,1.12,0,1,0,1.12,1.12A1.12,1.12,0,0,0,61.56,225.25Z" transform="translate(-27.97 -112.54)"/><path class="cls-1" d="M57,229.09A2.12,2.12,0,1,1,59.07,227,2.12,2.12,0,0,1,57,229.09Zm0-3.24A1.12,1.12,0,1,0,58.07,227,1.12,1.12,0,0,0,57,225.85Z" transform="translate(-27.97 -112.54)"/><path class="cls-1" d="M55.94,233.29a2.12,2.12,0,1,1,2.12-2.12A2.12,2.12,0,0,1,55.94,233.29Zm0-3.23a1.12,1.12,0,1,0,1.12,1.11A1.12,1.12,0,0,0,55.94,230.06Z" transform="translate(-27.97 -112.54)"/><path class="cls-1" d="M59.84,235.15A2.12,2.12,0,1,1,62,233,2.12,2.12,0,0,1,59.84,235.15Zm0-3.23A1.12,1.12,0,1,0,61,233,1.12,1.12,0,0,0,59.84,231.92Z" transform="translate(-27.97 -112.54)"/><path class="cls-1" d="M63.58,232.37a2.12,2.12,0,1,1,2.11-2.12A2.12,2.12,0,0,1,63.58,232.37Zm0-3.23a1.12,1.12,0,1,0,1.11,1.11A1.12,1.12,0,0,0,63.58,229.14Z" transform="translate(-27.97 -112.54)"/><path class="cls-1" d="M96.09,167.66a21.88,21.88,0,0,0-3.74,8.51,4.62,4.62,0,0,0-2.89,4.77s-14,13.1-9.54,16.68c0,0,3.92,7.32,19.41-10.9l7.49-7.83s-.34-1.87-1.71-2.38l5.62-1,1.19,1.7s5.79,1,3.58,3.75S91.33,200,93.88,215.49a23.67,23.67,0,0,0-6.13,2.89c-2.21,1.7-9.7,6-15.66,3.07s-10.72-4.26-14-2.56a6,6,0,0,1-.27-1,6.52,6.52,0,0,1,1.8-6.36c3.23-2.89,8.85-10.72,9.87-13.44s9.36-9.54,9.53-16.17c0,0-.25-3.32,1.28-3.58s6.5-.25,6.5-.25l1.75-1.88.6-2.29-1.36-1.28Z" transform="translate(-27.97 -112.54)"/><path class="cls-1" d="M33.71,227.91a68.51,68.51,0,0,0,8.6-2.46c5.44-1.88,12.89-4.37,15.47-8.06l.36,1.5,3.23-.74a57.48,57.48,0,0,1-22,10.44s-1.78,1.2,1.45,1.88,11.32,2.72,13.7,7l9.11-4.68s17.36.59,21.62-1.2c0,0,9.61,3.41,15,3.41,0,0-1.19-9.19,10-9.19l-17.61-9.9,1.18-.4h2s14.81,7.23,19.66,11.49c0,0-14.13-1.45-11.83,7.49,0,0,2.72,4.25-2.3,3s-16.26-4.94-16.26-4.94-7.23,2.64-20.93,1.19l-10.64,5.45a28.48,28.48,0,0,0-15.91-7.32S31,229.62,33.71,227.91Z" transform="translate(-27.97 -112.54)"/><path class="cls-1" d="M91.93,230.75a2.12,2.12,0,1,1,2.12-2.11A2.12,2.12,0,0,1,91.93,230.75Zm0-3.23a1.12,1.12,0,1,0,1.12,1.12A1.12,1.12,0,0,0,91.93,227.52Z" transform="translate(-27.97 -112.54)"/><path class="cls-1" d="M93.65,227.42a2.12,2.12,0,1,1,2.12-2.12A2.12,2.12,0,0,1,93.65,227.42Zm0-3.23a1.12,1.12,0,1,0,1.12,1.11A1.11,1.11,0,0,0,93.65,224.19Z" transform="translate(-27.97 -112.54)"/><path class="cls-1" d="M89.05,228a2.12,2.12,0,1,1,2.12-2.11A2.12,2.12,0,0,1,89.05,228Zm0-3.23a1.12,1.12,0,1,0,1.12,1.12A1.12,1.12,0,0,0,89.05,224.79Z" transform="translate(-27.97 -112.54)"/><path class="cls-1" d="M88,232.23a2.12,2.12,0,1,1,2.12-2.12A2.12,2.12,0,0,1,88,232.23ZM88,229a1.12,1.12,0,1,0,1.12,1.12A1.12,1.12,0,0,0,88,229Z" transform="translate(-27.97 -112.54)"/><path class="cls-1" d="M91.93,234.09A2.12,2.12,0,1,1,94.05,232,2.12,2.12,0,0,1,91.93,234.09Zm0-3.23A1.12,1.12,0,1,0,93.05,232,1.11,1.11,0,0,0,91.93,230.86Z" transform="translate(-27.97 -112.54)"/><path class="cls-1" d="M95.67,231.31a2.12,2.12,0,1,1,2.12-2.12A2.12,2.12,0,0,1,95.67,231.31Zm0-3.24a1.12,1.12,0,1,0,1.12,1.12A1.12,1.12,0,0,0,95.67,228.07Z" transform="translate(-27.97 -112.54)"/><path class="cls-1" d="M115.5,227s11.15,3.18,11.57,5-1,8.11-5.78,13.05-1.71,7.49-1.71,7.49l8.26-3.66s8.76-.17,10.89-1.19V251h4s-.85,3.74-4,4.76-3.49,5.37-7.4,7-12.61,2-15.33,3.83-11.4,5.62-16.08,2.81-.93-8.94,2-11,7.83-15.06,9.11-16.76,2.48-6.05-6.59-4.94l-.32-1.42s8.72-1.58,10.12,1.16-8.55,18.13-8.55,18.13l-2.56,4.85s-2.74,2.81-2.87,4.54a3.93,3.93,0,0,0,4,3.83c2.36-.13,6.64-.32,9.45-1.79a43.66,43.66,0,0,1,11-3.58c2.43-.25,9.64-6.06,10.92-7.27a4.25,4.25,0,0,0-3.83-.58c-1.92.83,3.83-3.57,3.83-3.57a15.11,15.11,0,0,0-6.71.44c-3.63,1.09-8.8,4.41-11.29,3.71s-1.92-6.71-.07-9.26,10.47-10.34,6.19-13.34-13.21-5.21-13.21-5.21S113.68,226.43,115.5,227Z" transform="translate(-27.97 -112.54)"/><path class="cls-1" d="M117,252.51s-.38,2-5.75,3.19a40,40,0,0,1-7.46,1.21l-1.22,1.92s4.47-.51,5.75-.89,8.23-1.41,9.76-4Z" transform="translate(-27.97 -112.54)"/><path class="cls-1" d="M112.54,267s-6.51.19-5.55-2.17,7.5-3.26,13.23-3.7,11.6-6.58,11.6-6.58l-.45-1.08s-4.88,5.36-11.15,5.87-15.34.13-16.49,4.72S111.71,267.13,112.54,267Z" transform="translate(-27.97 -112.54)"/><path class="cls-1" d="M37.48,230.25s-7,6-5.75,7.58,7.73,7.85,19.6,11.68,14.36,7.28,13.53,8.3S47,254,43.48,255.67c0,0-5.3.92-8.94,0l-.19,1.69-5.62-1.15,1.85,3.64L28,260.94l3.06.31L31,263.17H34s-.89,2.87,10.72,5.11,31.28,2.87,35.3,0,7.15-7.54.26-12.61-26-16.92-26-16.92l-3.13-1.56s1.92,2.43-4.52.89c0,0,.43,1.6,5.81,2.24,0,0,20.93,12.45,27,17.36S78.14,267,69.07,267.77s-27.19-.07-34.21-5.49c0,0-1.6-3.64,1.66-3.71l3.57-.06a3,3,0,0,0,1.54,3.57c2.29,1.22,18.38,4.86,32.65,4l5.07-2.37s-25,3.09-34.21-3.33c0,0-2.24-2.6,1.34-3.05s14.61,3.05,14.61,3.05,6.32,2.57,8-.88-6.79-7.91-13.8-10.94-19.6-8.25-21-11S40,231.32,40,231.32Z" transform="translate(-27.97 -112.54)"/><path class="cls-1" d="M95.67,216s3.34-3.7,4.74-4a46.44,46.44,0,0,0,4.79-1.73s4.09.9,5.87-.95,2.17-6.39,2.17-6.39,2.34,1.54,2.26,2.43c0,0,2.34-1.4,2.34-3a8,8,0,0,1,.7-3.06,4.78,4.78,0,0,1,1.68,3.89h2.34s.07,2.42-1.59,3c0,0,1.44,3.7-.75,5.23s-15,10-15,10l-1.47-.83,6.26-4.4,7.08-4-.32-2.11h2.17L119,207a1.91,1.91,0,0,0-2.3-.19,3.56,3.56,0,0,0-1.19,2.55s-2.58-.57-3.53,1.28-2.24,1-7.15,1.72a14,14,0,0,0-8,4.53Z" transform="translate(-27.97 -112.54)"/><path class="cls-2" d="M106.56,120.74c1.7-.46,2.55-4.91,2.55-4.91l-4-.43C104,118.72,104.86,121.19,106.56,120.74Z" transform="translate(-27.97 -112.54)"/><path class="cls-2" d="M107.41,126c1-.68,0-3.19,0-3.19l-5.53-.64c-6,.59-5.79,2.29-3.4,3.57s4.93-.51,4.93-.51C103.67,127.49,106.39,126.64,107.41,126Z" transform="translate(-27.97 -112.54)"/><path class="cls-2" d="M92.09,120.34H85c-3.32,0,.34,2.13,2.47,2.81s1.19,2,1.19,2A7.46,7.46,0,0,0,94,122C94.48,121,92.09,120.34,92.09,120.34Z" transform="translate(-27.97 -112.54)"/><path class="cls-2" d="M122.22,119.66c-5.51.27-14.47,7.74-14.64,9.28a29,29,0,0,1-1.61,5c-4,5.36,3.06,7,3.91,1.53s8.85-10.21,8.85-10.21,1.45,2.46-2.21,5.7-3.92,11.32-3.92,11.32c5.62-.17,7.83-3,7.83-3C129.37,128.51,122.22,119.66,122.22,119.66Z" transform="translate(-27.97 -112.54)"/><path class="cls-1" d="M121,149.49c1.4-1.92,4.21-1.53,6,2s6.77,4.21,6.77,4.21-3.45-3.81-3.45-7.39,1.4-11.63-5.24-10.48c0,0,7.54-12.25.52-22.85,0,0-9.83-.47-14.81,7.94l-2.3-.92s5.23-7,2.81-8.3-9.19-1.91-8.68,0,0,7,0,7l-5.08.54s-6.13-6.81-15.06-1.62c0,0-3.58,3.47-5.49,1.08s-7.15-2.91-7.15-2.91l4,2.91s-6.64,3.34-8.94,5.51-7.17,3.32-7.17,3.32,6.28,1.5,11.51-2.12a12.18,12.18,0,0,1,10.34-1.83s-16.47,2.58-13.28,14.25c0,0,1.66-11.19,13-8,0,0-6.52,1.53-6.52,3.83s.52,10-1.14,11.75,2.68,1.14,2.68,1.14v4.6s-.13,2.43-6.51-2.42-10.11-5.11-10.11-5.11.91-7.66-7.13-6.26c0,0-9,3.71-.65,8.81,0,0-8.67,5.87-.75,13.53l-1.53,4,2.93,1v3.58s1.38,5.36,8.29,3.83c0,0,4.35,6.12,8.56,4.59s14.68-5.87,14.68-5.87l6.83-.83,3.64-1.34-1.27-1.28a21,21,0,0,1-9.71.64,12,12,0,0,1-8,2.55s0,3.32-5.36,2.56c0,0-5.11,4-7-.26l-1-1.91s-8,.51-6.26-3.45l5.75.26,1.81,0,1,2.85h2.94L64.86,169h1.53l1,1.79s8-2.68,10.34-4.22,2.3-2.29,4.09-1.53,8.17.77,9.57-2.17c.62-1.3.2-1.83-.47-2-.32-.66-1.27-1.69-4.09-1.42-4,.38-9.52,2.25-13.82,2.17,0,0-1.4,4.34-7.15.25l-5.23-.13s-3.32.26-6.64-5.49l1.4,5.24s-3.06.65-4.34-.57-6.25-8-.51-10.92c0,0,2.17-.51,4.47,2.55l.51-4.21a6.83,6.83,0,0,1,5.23.38c2.43,1.41,10.09,9.7,13,9.45S75.71,155,75.71,155h3.83s.89-2.3-1.15-2.56c0,0,2.3-3.83-2.68-4.08,0,0-1.4-2.3-.21-3s5.87-.59,7.32.77A6.6,6.6,0,0,1,84.43,150l.86,2.81L83,154.13s-2.56-1.36-2.56,1.1,1.79,2.56,2.81,1.92a3.53,3.53,0,0,0,1.36-1.83l6.05-.85-.09-3.32L88.77,151s1.62-5.23-3.14-3.58a3.23,3.23,0,0,1,3.31-3.59c3.66-.15,5.45,1,5.88,4.36s-.6,4.94-.6,4.94H93l-.68,1.61a8.17,8.17,0,0,1,5.53,2.43l-.17-2.68-1.62-1.53.17-4.69h1.45l-.34-1.58-1.53-.54s1.36-3.41-.94-4-6.55-3-10.64,2.69c0,0-2.46-2.56-8.68-1.37,0,0,1.11-8.42,10.81-5,0,0,1.87-3.74,5.19-2.38a6.36,6.36,0,0,1,3.66,5s7.92-2.3,7.24,5.28c0,0,4.85.85,3.74,4.25a4.88,4.88,0,0,1-6.13,3.41,6.32,6.32,0,0,0,4.94,3.19s.08,4.3-5.87,4.81a5.12,5.12,0,0,0,5.53,1s-.34,2.89-2.72,3.91c0,0,.76,4.94-3.15,5.88,0,0,3.32.51,4.76-1.11l2.47-.43s2,2.05-2.13,3.66c0,0-1.13,2,4.09,2.3s5.1-5.11,5.1-5.11,3-1.25,2.89,3.45c0,0,5.8-4.47,4.9-9.83s-1.91-8.68,1.15-8.55,1.66,4.21,3.32,6.25-1.53,9.07,0,10c0,0,4.72-3.06,3.32-6.51s5.23-4.47,2.94-7.53S119.63,151.4,121,149.49ZM81.84,164l-1-1.9c1-.13,2.14-.32,3.38-.59l.38,1.73Zm7.35-3.19-.33.07.13,1.21-3.07,1.15-.11-2.1c.34-.08.68-.16,1-.26A5.7,5.7,0,0,1,89.19,160.85Zm-15.62,1-.08,0Zm.51.15L74,162Zm-10,1.53-.63,3.06a6.56,6.56,0,0,0-2.08,1.93,13.68,13.68,0,0,1-2-.21L58.85,164S60.14,163.15,64.09,163.53Zm-7,.64.55,4.34-3.81-.26-1-4.08ZM94,122a7.46,7.46,0,0,1-5.28,3.23s.94-1.36-1.19-2-5.79-2.81-2.47-2.81h7.06S94.48,121,94,122Zm11.14-6.56,4,.43s-.85,4.45-2.55,4.91S104,118.72,105.11,115.4Zm-1.7,9.79s-2.55,1.79-4.93.51-2.64-3,3.4-3.57l5.53.64s1,2.51,0,3.19S103.67,127.49,103.41,125.19Zm17,14.13s-2.21,2.81-7.83,3c0,0,.26-8.09,3.92-11.32s2.21-5.7,2.21-5.7-8,4.76-8.85,10.21S102,139.32,106,134a29,29,0,0,0,1.61-5c.17-1.54,9.13-9,14.64-9.28C122.22,119.66,129.37,128.51,120.43,139.32Z" transform="translate(-27.97 -112.54)"/></svg>