<svg id="статика" xmlns="http://www.w3.org/2000/svg" width="695.13" height="431.23" viewBox="0 0 695.13 431.23"><defs><style>.cls-1{fill:#bac2b7;}.cls-2{fill:none;}.cls-3{fill:#929392;}.cls-4{fill:#6f4a20;}.cls-5{fill:#f9f9f9;}.cls-6{fill:#ff3200;}.cls-7{fill:#ff6c00;}.cls-8{fill:#185408;}.cls-9{fill:#c92c17;}</style></defs><rect class="cls-1" width="695.13" height="431.23"/><path class="cls-2" d="M693,128.53v.32a.22.22,0,0,0,0-.32Z"/><path class="cls-3" d="M693,138.43c.4-.08.79-.16,1.2-.26v-2c-.41.1-.8.18-1.2.26Z"/><path class="cls-3" d="M693,126.53v2a1.11,1.11,0,0,1,.07.16A3.06,3.06,0,0,0,693,126.53Z"/><path class="cls-3" d="M693,238.17l.43-.17v-4l-.43.17Z"/><path class="cls-3" d="M693,217.1l.43-7.19-.23-.13-.2,3.32Z"/><polygon class="cls-3" points="31.72 0.74 30.25 2.79 33.19 2.79 31.72 0.74"/><rect class="cls-3" x="693.04" y="149.91" width="2.09" height="5"/><path class="cls-4" d="M695.13,146.8c-.17,0-.24,0-.12,0h.12Z"/><path class="cls-4" d="M695,146.81h0Z"/><path class="cls-5" d="M693.47,232v-4l-.43.17v4Z"/><path class="cls-5" d="M693,234.17l.43-.17v-2l-.43.17Z"/><path class="cls-5" d="M693,209.68l.2.1.12-2.09-.32-.29Z"/><path class="cls-5" d="M693,213.1l.2-3.32-.2-.1Z"/><path class="cls-5" d="M693.36,207.69l.11-1.78s-.16-.1-.43-.23v1.72Z"/><path class="cls-3" d="M635.58,108.77c2.59,1.21,5.3.91,6-.69a2.41,2.41,0,0,0,0-2c-.78,1.55-3.46,1.84-6,.64a6.55,6.55,0,0,1-3.32-3.14l0,.05C631.48,105.27,633,107.55,635.58,108.77Z"/><path class="cls-3" d="M693,116.85c-1.75.13-8.88-1-11.21-2.35-.55.39-.91.8-.74,1.33.37,1.14,5.46,2.3,9,2.79l3,.2Z"/><path class="cls-3" d="M684.74,109.87c0-1.78-4.46.34-6.76-.85h0c-1.33.74-1.38,1.28,0,2,1.68.87,4.54,0,5.94.12A1.71,1.71,0,0,0,684.74,109.87Z"/><path class="cls-3" d="M671.87,124.1a8.29,8.29,0,0,1,.41-1.59l-.49.1A5.17,5.17,0,0,0,671.87,124.1Z"/><path class="cls-3" d="M690.32,124.51c-1.73-.3-5.09-2.58-7.52-4.37l-2.86-.18s7.49,6,10.38,6.55a3.34,3.34,0,0,1,2.72,2v-2A3.34,3.34,0,0,0,690.32,124.51Z"/><path class="cls-3" d="M665.83,126.47a3.16,3.16,0,0,0-.19,1c-.08,3.74,10.48,14.46,27.4,11v-2C677.48,139.63,667.3,130.82,665.83,126.47Z"/><path class="cls-3" d="M651.06,94.64c.89-2.08,1.69-4.6,1.34-6.35a22.52,22.52,0,0,1-2.15,6.11Z"/><path class="cls-3" d="M639.09,129.45c-3.24.74-6.47-6.42-6.83-12.27-.41,6,3.21,15.1,6.83,14.27,2.69-.62,3-6.12,2.92-9.81C641.92,125.06,641.32,128.93,639.09,129.45Z"/><path class="cls-3" d="M689.21,93.53c-.51-1.79-.34-5.79-4.93-6-2.12-.07-2.45,1.26-2,2.89.28-.58.89-.93,2-.89,4.59.17,4.42,4.17,4.93,6a1.41,1.41,0,0,0,1.37.92,10.29,10.29,0,0,1,1.87-.11l.59-.13v-2C691.93,94.48,689.6,94.88,689.21,93.53Z"/><path class="cls-3" d="M632.28,114.87a16.36,16.36,0,0,1-2.73-2l-4.76,9.53-.17-14.47-6.43-1-5.06,1.21,11.49,1.78.17,14.47,4.76-9.53a16.2,16.2,0,0,0,2.69,2A14.2,14.2,0,0,1,632.28,114.87Z"/><path class="cls-3" d="M645.3,100.3c10.21,2.72,29.53,4.17,35.4,4.34,4.75.14,6.49-3.34,5.82-5.62-.49,1.88-2.34,3.72-5.82,3.62-5.87-.17-25.19-1.62-35.4-4.34s-17.53-3.92-18.21,1.36a7.87,7.87,0,0,0,0,2.06.13.13,0,0,1,0-.06C627.77,96.38,635.09,97.57,645.3,100.3Z"/><path class="cls-3" d="M623,102.14c0,.48,0,1,0,1.64l.15,0C623,103.2,623,102.66,623,102.14Z"/><path class="cls-3" d="M677.24,86.63c0,.2,0,.42,0,.65a27.35,27.35,0,0,0,1.85,10.48c.58-.13.88-.23.88-.23S677.52,93.9,677.24,86.63Z"/><path class="cls-3" d="M648.28,118.89a33.24,33.24,0,0,1-6.31-.48c0,.59,0,1.28.06,2a34.34,34.34,0,0,0,6.25.47s6,13.58,18.6,20.92h4C655.51,135.34,648.28,118.89,648.28,118.89Z"/><path class="cls-5" d="M638.29,103a6.45,6.45,0,0,1,3.31,3.14l0,0c.75-1.6-.75-3.88-3.34-5.09s-5.31-.91-6.06.69a2.45,2.45,0,0,0,0,1.95C633.05,102.08,635.72,101.79,638.29,103Z"/><path class="cls-5" d="M635.58,106.77c2.56,1.2,5.24.91,6-.64a6.45,6.45,0,0,0-3.31-3.14c-2.57-1.2-5.24-.91-6,.64A6.55,6.55,0,0,0,635.58,106.77Z"/><path class="cls-5" d="M692.45,96.34a10.29,10.29,0,0,0-1.87.11A6.48,6.48,0,0,0,692.45,96.34Z"/><polygon class="cls-5" points="693.04 118.85 693.04 118.82 693.04 118.82 693.04 118.85"/><path class="cls-5" d="M693,118.85v0l-3-.2A16.42,16.42,0,0,0,693,118.85Z"/><path class="cls-6" d="M650.66,84.34c-4.85-1.36-3.57,2.55-7.57,3.23s-4.51-8.93-9.79-8.68c-4.19.21-4.68,9-4.7,12.54l.06,0c5.27-1.94,13.32.5,21.59,3a22.52,22.52,0,0,0,2.15-6.11C652.68,86.41,652.35,84.81,650.66,84.34Z"/><path class="cls-6" d="M632.24,116.84c0,.12,0,.23,0,.34,0-.1,0-.21,0-.31Z"/><path class="cls-6" d="M642,121.64c0-.42,0-.83,0-1.22H642C642,120.78,642,121.2,642,121.64Z"/><path class="cls-6" d="M642,120.42c0-.73,0-1.42-.06-2a27.64,27.64,0,0,1-9.69-3.54,14.2,14.2,0,0,0,0,2l0,0c0,.1,0,.21,0,.31.36,5.85,3.59,13,6.83,12.27,2.23-.52,2.83-4.39,2.92-7.81,0-.44,0-.86,0-1.23Z"/><path class="cls-5" d="M693,118.82v0a16.42,16.42,0,0,1-3-.23L679.94,118s1.22,1,2.86,2.18c2.43,1.79,5.79,4.07,7.52,4.37a3.34,3.34,0,0,1,2.72,2,3.06,3.06,0,0,1,.07,2.16,1.11,1.11,0,0,1-.07.16c-.52,1.13-19.69,3-21.17-4.75a5.17,5.17,0,0,1-.08-1.49,7.89,7.89,0,0,1,.49-2.1s-6.55,1.11-6.64,4.94a2.92,2.92,0,0,0,.19,1c1.47,4.35,11.65,13.16,27.21,10,.4-.08.79-.16,1.2-.26V118.89Z"/><path class="cls-5" d="M683.92,111.14c-1.2.93-3.24,1.56-2.88,2.69a1.59,1.59,0,0,0,.74.67c2.33,1.32,9.46,2.48,11.21,2.35h0l-.51-20.51h-.08a6.48,6.48,0,0,1-1.87.11c-.88.15-1.7.47-1.62,1.17.17,1.44-2,5.61-6.81,7.57s-6.46,2.64-4.18,3.83h0c2.3,1.19,6.8-.93,6.76.85A1.71,1.71,0,0,1,683.92,111.14Z"/><path class="cls-5" d="M652.87,112.94c-19.56.52-25.17-6-25.79-11.22a7.87,7.87,0,0,1,0-2.06c.68-5.28,8-4.09,18.21-1.36s29.53,4.17,35.4,4.34c3.48.1,5.33-1.74,5.82-3.62a3.26,3.26,0,0,0-.88-3.36,12.08,12.08,0,0,1-3.36-5.2c-.45-1.63-.12-3,2-2.89,4.59.17,4.42,4.17,4.93,6,.39,1.35,2.72,1,3.83.68V81c-1.74.62-4,1.71-4.42,3.26-.68,2.59-11.41-7.11-11.41,1.06,0,.46,0,.91,0,1.35.28,7.27,2.7,10.9,2.7,10.9s-.3.1-.88.23c-2.5.56-10.23,1.76-22.1-1.42-2-.52-3.93-1.11-5.9-1.7l-.81-.24c-8.27-2.49-16.32-4.93-21.59-3l-.06,0c-2.68,1-4.64,3.15-5.51,7a23.33,23.33,0,0,0-.13,3.69c0,.52.06,1.06.13,1.6l-.15,0-9.81,2.35,5.06.79,6.43,1,.17,14.47,4.76-9.53a16.36,16.36,0,0,0,2.73,2,27.64,27.64,0,0,0,9.69,3.54,33.24,33.24,0,0,0,6.31.48s7.23,16.45,22.62,22.92h10.59A46.58,46.58,0,0,1,652.87,112.94Z"/><path class="cls-3" d="M664.89,224.55c-.6,9.06,2.61,13.47,7.06,15.37a39.78,39.78,0,0,0,7.78,1.21,44.19,44.19,0,0,0,13.31-3v-4C689.61,235.52,666.31,243.94,664.89,224.55Z"/><path class="cls-3" d="M652.71,203.21a10.85,10.85,0,0,0-.19-2c-.6,3.26-2.66,5.66-5.1,5.66s-4.5-2.4-5.11-5.66a10.85,10.85,0,0,0-.19,2c0,4.23,2.37,7.66,5.3,7.66S652.71,207.44,652.71,203.21Z"/><path class="cls-3" d="M687.21,218c-.05-1.37-1.58-2.08-3.24-2.44-1.37,1.94-2.86,3.57-4.29,3.63a17.87,17.87,0,0,1,5.48.71C686.4,219.71,687.26,219.12,687.21,218Z"/><path class="cls-3" d="M692.32,225.32c-4.44.53-7.59-.19-9.82-1.35a10.75,10.75,0,0,1-5.12-1.93s1.85,7.47,12.12,7.45c.92-.31,1.88-.67,2.87-1.07L693,217.1v-4Z"/><path class="cls-3" d="M657.91,183.54a18.52,18.52,0,0,0,.32-6.17,30.45,30.45,0,0,1-1.15,5.57C657.36,183.13,657.63,183.34,657.91,183.54Z"/><path class="cls-3" d="M634.75,220.85a6.28,6.28,0,0,1-6.24-5.16,4.21,4.21,0,0,0-.27,1.35c-.13,4.62,2.55,7.81,6.51,7.81,1.68,0,2.27-2.89,2.41-6.22-.12-.31-.21-.62-.31-.93C636.51,219.55,635.87,220.85,634.75,220.85Z"/><path class="cls-3" d="M686.7,202.6c-4.21,2.55-10.72,7.4-17.61,1.53s-11.33-20.15-22-19.25c-5.77.49-9.18,8.37-8.61,17.66.49-7.45,3.69-13.24,8.61-13.66,10.63-.9,15.06,13.38,22,19.25s13.4,1,17.61-1.53a5.7,5.7,0,0,1,.82-.41l.21-.28c1.52-1.93,4.27-.78,5.31-.23V203.4C691.66,202.24,689.33,201,686.7,202.6Z"/><path class="cls-3" d="M654.92,242.81H655l.05,0v0h6.8c-11.92-4.24-20.83-17.33-24.73-28.18a23.07,23.07,0,0,1-.31,3.07c.1.31.19.62.31.93,3.07,8.53,9.23,18.45,17.52,24.36l.24-.12Z"/><path class="cls-3" d="M680.28,198.9a22.54,22.54,0,0,0-.07,2.43h.37A22.46,22.46,0,0,1,680.28,198.9Z"/><path class="cls-3" d="M635,203.36l-6.53-1-3.94,3.37,8.25,1.31c.81-.55,1.6-1,2.26-1.37A16,16,0,0,1,635,203.36Z"/><polygon class="cls-3" points="629.57 194.22 625.3 195.49 629.01 197.87 631.68 195.57 629.57 194.22"/><path class="cls-3" d="M66.83,205.4a37,37,0,0,1,12-3.76,21.67,21.67,0,0,1-5.21-1.91A38,38,0,0,0,67,202.32,28.26,28.26,0,0,1,66.83,205.4Z"/><path class="cls-3" d="M12.53,207.51c6.9,1.53,20.17-6,23-10.47s7.41-9.57,13.15-9.16c4.15.3,10.77,6.35,14.12,9.68.67-.29,1.36-.58,2.09-.84a72.11,72.11,0,0,0-10.51-9.33L48,184.87c-5.44,0-9.8,4.87-12.5,9.17-2.81,4.47-16.08,12-23,10.47C5.84,203,4,201.06,0,201.77v3C4,204.06,5.84,206,12.53,207.51Z"/><path class="cls-3" d="M7.14,196.75a39.24,39.24,0,0,0,2.59-11.2,3.31,3.31,0,0,0-.17-1.31A40.58,40.58,0,0,1,5.9,196.6Z"/><path class="cls-3" d="M59.5,207.5a28,28,0,0,0-7.9,13.1c-4,14.32-4,20.72-12,23.52l3,1.54c5.1-3.36,5.54-9.81,9-22.06a28.09,28.09,0,0,1,7.2-12.42c.13-.91.29-1.85.5-2.81C59.36,208.07,59.43,207.79,59.5,207.5Z"/><path class="cls-3" d="M49.17,200.17a5.23,5.23,0,0,1-5-3.73,5.23,5.23,0,1,0,10.23,1.5,4.91,4.91,0,0,0-.25-1.5A5.22,5.22,0,0,1,49.17,200.17Z"/><path class="cls-3" d="M20.79,214.39a4,4,0,0,1-.3-.73,4.85,4.85,0,0,0,.3,3.73,4.46,4.46,0,0,1,3.44,3.6C24.8,217.91,23.74,215.08,20.79,214.39Z"/><path class="cls-3" d="M16.53,241c12.84-1.34,16-14.08,15.5-21.77-.43,7.62-4.22,17.59-15.5,18.77-9.68,1-14.37,1-16.53.83v3C2.16,242,6.85,242,16.53,241Z"/><path class="cls-3" d="M4.07,221.28a7.36,7.36,0,0,1,3.16.67c2.67-.08,4.86-1.29,5.48-3.29a4.09,4.09,0,0,0-.13-2.67c-1.06,2.56-4.83,3.68-8.67,2.5A9.79,9.79,0,0,1,0,216.25v3a9.8,9.8,0,0,0,3.41,2.07C3.63,221.3,3.84,221.28,4.07,221.28Z"/><path class="cls-6" d="M58.8,211.18c-.77,5.38-.26,9.62,1.35,10,1.89.41,4.57-4.66,6-11.32a40.65,40.65,0,0,0,.7-4.42A31.57,31.57,0,0,0,58.8,211.18Z"/><path class="cls-6" d="M59.5,207.5c-.07.29-.14.57-.2.87-.21,1-.37,1.9-.5,2.81a31.57,31.57,0,0,1,8-5.78,28.26,28.26,0,0,0,.15-3.08A31.69,31.69,0,0,0,59.5,207.5Z"/><path class="cls-5" d="M49.17,189.7a5.24,5.24,0,0,0-5.23,5.24,5.35,5.35,0,0,0,.24,1.5,5.2,5.2,0,0,0,10,0,5,5,0,0,0,.25-1.5A5.25,5.25,0,0,0,49.17,189.7Z"/><path class="cls-6" d="M49.43,179c4.36.42,7.8,3.37,11.32,6.89,2.44-3.44,4.59-15.06.29-15.06-4.72,0-5.49,6.38-7.54,6.38s-1.26-7.66-5-7.66c-3,0-4.11,6.92-4.42,9.64A18.39,18.39,0,0,1,49.43,179Z"/><path class="cls-5" d="M60.75,185.87c-3.52-3.52-7-6.47-11.32-6.89a18.39,18.39,0,0,0-5.39.19c-6.34,1.27-9.17,6.42-13.88,12.57-4.94,6.46-18.8,5.48-23,5L5.9,196.6a40.58,40.58,0,0,0,3.66-12.36c.07-.56.13-1.12.17-1.69C10,179,5.18,177.42,0,176.76v25c4-.71,5.84,1.25,12.53,2.74,6.9,1.53,20.17-6,23-10.47,2.7-4.3,7.06-9.17,12.5-9.17h.65a13.18,13.18,0,0,1,5.7,2.51,72.11,72.11,0,0,1,10.51,9.33c-.73.26-1.42.55-2.09.84C44.1,205.8,49.59,227.06,39,237.19c-3.07,2.92-7.82,4.65-13.08,5.62H37v0l.05,0h.11v.06l2.45,1.25c8.06-2.8,8-9.2,12-23.52a28,28,0,0,1,7.9-13.1A31.69,31.69,0,0,1,67,202.32a38,38,0,0,1,6.63-2.59,31.6,31.6,0,0,1,5.21-1.09C70.8,196.85,65.69,190.8,60.75,185.87Z"/><path class="cls-5" d="M31.34,212.22c-2-5.91-9.27-4.22-10.55-2.18a4.27,4.27,0,0,0-.3,3.62,4,4,0,0,0,.3.73c2.95.69,4,3.52,3.44,6.6a11.86,11.86,0,0,1-9,9.14c-4.38,1-11.87.67-15.2.46v8.2c2.16.16,6.85.18,16.53-.83,11.28-1.18,15.07-11.15,15.5-18.77A19.11,19.11,0,0,0,31.34,212.22Z"/><path class="cls-5" d="M7,208.38A8.54,8.54,0,0,0,0,209v7.28a9.79,9.79,0,0,0,3.91,2.24c3.84,1.18,7.61.06,8.67-2.5a3.24,3.24,0,0,0,.13-.33C13.57,212.87,11,209.61,7,208.38Z"/><path class="cls-5" d="M3.41,221.32l.5.17a10.31,10.31,0,0,0,3.32.46,7.36,7.36,0,0,0-3.16-.67C3.84,221.28,3.63,221.3,3.41,221.32Z"/><path class="cls-5" d="M9.21,224.38a2.94,2.94,0,0,0-2-2.43,10.31,10.31,0,0,1-3.32-.46l-.5-.17A6.33,6.33,0,0,0,0,222.5V225a5.6,5.6,0,0,0-.48.3v.86A7.45,7.45,0,0,0,4,227.49a6.9,6.9,0,0,0,5-1.79l-.19-.18A2.06,2.06,0,0,0,9.21,224.38Z"/><path class="cls-3" d="M27.19,118.53s3.95,1.55,3.95,6.89a7.92,7.92,0,0,0,1-3,9.25,9.25,0,0,0-.33-3.55C27.84,116.06,27.19,118.53,27.19,118.53Z"/><path class="cls-3" d="M18,109.46c-1.5,2.67-5,5.83-12.11,9.12,0,0,2.67,0,5.81.2C17,115.11,18.17,111.82,18,109.46Z"/><path class="cls-3" d="M39.39,143l4.26,2.17c3.25-1.55,6.29-4,7.54-7.91a52.48,52.48,0,0,0,1.57-5.86c-.18.64-.38,1.26-.57,1.86C50.25,139.32,44,141.91,39.39,143Z"/><path class="cls-3" d="M20.55,125.7a2.32,2.32,0,0,0-1.39-1.32A54.54,54.54,0,0,1,8.51,128c2.71-.6,8.44-1.6,9.47.34,0,0,0,.08,0,.11C19.7,127.58,20.8,126.63,20.55,125.7Z"/><path class="cls-3" d="M35.42,129.75c-2,5.38-6.73,10.51-15.57,12.06h8.62A18.09,18.09,0,0,0,35.42,129.75Z"/><path class="cls-3" d="M17,132.34c0-.05-.07-.08-.1-.13a21.4,21.4,0,0,1-3.15,3.28s0,.6,2.25.59C16.91,134.79,17.54,133.39,17,132.34Z"/><path class="cls-3" d="M4.36,89.87c0-.24,0-.47,0-.7a8.36,8.36,0,0,0-1,4.7c.49,8.15,5.93,10.57,7.19,13.45C15.32,101.45,5,101.22,4.36,89.87Z"/><path class="cls-3" d="M17.44,87.82c1.85-1.16,4.92-.4,7.25,1.93a9.18,9.18,0,0,1,1.44,1.87c19.69,16.22,22.38,27.14,21,39.31a12.29,12.29,0,0,0,.94-3.44c1.53-12.77-1.14-24-22.81-41.36,0,0-11.92-6.81-15.83,2.38A6.4,6.4,0,0,0,9.31,91C11.33,87.93,14.52,87.43,17.44,87.82Z"/><path class="cls-3" d="M18.42,96a8.53,8.53,0,0,1-2.31-4l-.22.16c-1.73,1.73-1.05,5.23,1.53,7.8s6.07,3.27,7.8,1.54A4,4,0,0,0,26,97.72C24.21,99.21,20.9,98.5,18.42,96Z"/><path class="cls-6" d="M43.12,95.86c5.6,1.38,12.57,2.55,11.38-.61-1.5-4-14.11-5.85-19.72-6.48A69.9,69.9,0,0,1,43.12,95.86Z"/><path class="cls-6" d="M21.21,79.09l.26-.25c-.24-4-1.16-12.47-4.68-12.24-4.6.29-1.87,10.34-4.77,9.49S5,71.66,1.13,74.6C-2.1,77.07,2.31,83.1,5.5,84.92,9.3,78.67,21.21,79.09,21.21,79.09Z"/><path class="cls-5" d="M7.51,132c-.86.19-1.42.34-1.42.34Z"/><path class="cls-5" d="M43.12,95.86a69.9,69.9,0,0,0-8.34-7.09l-.12-.09,1.19-6.47L30.16,83.7l-3-10.34-5.71,5.48-.26.25S9.3,78.67,5.5,84.92a8.12,8.12,0,0,0-1.14,4.25c0,.23,0,.46,0,.7.68,11.35,11,11.58,6.19,17.45l-.06.08C7.43,111.09,3,111.06,0,110.5v31.31H19.85c8.84-1.55,13.58-6.68,15.57-12.06,2.15-5.81,1.1-11.9-1.49-14-5-4.13-5.74-1.17-5.74-1.17a6.74,6.74,0,0,1,3.59,4.3,9.25,9.25,0,0,1,.33,3.55,7.92,7.92,0,0,1-1,3c-2.75,5.24-10.53,10.29-13.67,10.58-.59.05-1.07.07-1.49.08-2.25,0-2.25-.59-2.25-.59a21.4,21.4,0,0,0,3.15-3.28c1-1.27,1.62-2.68,1.14-3.76,0,0,0-.07,0-.11-1-1.94-6.76-.94-9.47-.34l-1.42.34s.56-.15,1.42-.34a54.54,54.54,0,0,0,10.65-3.62c1.6-.85,2.63-1.77,2.39-2.68-.48-1.86-5.59-2.61-9.84-2.92-3.14-.22-5.81-.2-5.81-.2,7.16-3.29,10.61-6.45,12.11-9.12a6.44,6.44,0,0,0-.54-7.72C11.09,97.57,9.56,93.45,9.31,91a6.4,6.4,0,0,1,.16-2.44c3.91-9.19,15.83-2.38,15.83-2.38C47,103.44,49.64,114.72,48.11,127.49a12.29,12.29,0,0,1-.94,3.44c-2.79,6.38-10.64,9.49-15.78,10.88H37v0l.05,0h.11v.06l1.41.72.84.43c4.64-1.11,10.86-3.7,12.8-9.74.19-.6.39-1.22.57-1.86C55.32,122.71,57,109.82,43.12,95.86Z"/><path class="cls-5" d="M26.13,91.62a9.18,9.18,0,0,0-1.44-1.87c-2.33-2.33-5.4-3.09-7.25-1.93a3.09,3.09,0,0,0-.55.4,4,4,0,0,0-.78,3.84,8.53,8.53,0,0,0,2.31,4c2.48,2.48,5.79,3.19,7.58,1.7.07-.06.16-.1.22-.16C27.56,96.22,27.44,93.82,26.13,91.62Z"/><path class="cls-3" d="M96.53,64.19s.3,13.27.33,23c0-9.66-.33-26-.33-26h-.37l0,0H91.17v2.89Z"/><polygon class="cls-3" points="100.96 60.23 100.96 63.23 115.09 52.96 116.7 52.96 116.7 49.96 115.09 49.96 100.96 60.23"/><rect class="cls-3" x="100.96" y="80.85" width="15.74" height="3"/><path class="cls-7" d="M96.86,87.15c0,1.59,0,3,0,4.12l0,.06C96.86,90.06,96.86,88.65,96.86,87.15Z"/><path class="cls-7" d="M116.47,42.55,96.11,58.22h-8.8V78.06l3.86,5.37V61.11l5,.08h.37s.36,16.3.33,26c0,1.5,0,2.91,0,4.18L101,97l1.73,2.42,3.51,4.88,17,5.28V42.55Zm.23,41.3v17.89L101,95.8v-15H116.7Zm0-30.89V76.09H101V60.23L115.09,50h1.61Z"/><polygon class="cls-3" points="98.39 120.85 102.38 118.34 32.11 21.62 0 65.81 0 73.81 32.11 29.62 98.39 120.85"/><polygon class="cls-3" points="106.56 115.7 106.56 115.7 106.56 115.7 106.56 115.7"/><path class="cls-3" d="M123.17,109.62l-17-5.28-3.51-4.88L101,97l-4.11-5.71,0-.06-5.64-7.84-3.86-5.37V40.6H60.37L33.19,2.79H30.25L0,44.86V53.8L32.11,9.14,108,114.67l4-2.93-2.81-3.47,14,4.35ZM83.85,77.23H81.73V72h2.12Zm0-8H77.43V64h6.42Zm0-9H71V55H83.85Zm0-9H65.13V46H83.85Z"/><path class="cls-3" d="M125.5,387l0-.08c1.29-3.06,1.75-5.35.5-5.2-.08.2-.16.4-.25.6A8.64,8.64,0,0,0,125.5,387Z"/><path class="cls-3" d="M8.21,385.66s0,.11,0,.22a3.13,3.13,0,0,0,.4-1.4A5.43,5.43,0,0,0,8.21,385.66Z"/><path class="cls-3" d="M64.39,382c-.52-.46-1.24-1.07-1.16-.82s.18.91.34,1.86l.94-.26S64.46,382.48,64.39,382Z"/><path class="cls-3" d="M26.34,398.81c1.15-.26,5.74-7.66,8.3-6.26s3.7,8.81,8.55,6.13,15.45-1.15,15.45-1.15,5.48.26,9.31-1.27,3.2,7,8.69,2.55,11.48-3.7,12-2.43,4.21-3.32,10-.38,8.43,6.13,11.75,2.55,15.44,2.94,16-3.32a16.62,16.62,0,0,1-.8-2.47c-3.12,2.3-12.11-1.8-14.9,1.2-3.32,3.57-6,.38-11.74-2.56s-9.45,1.66-10,.39-6.51-2.05-12,2.42-4.85-4.08-8.68-2.55-9.32,1.28-9.32,1.28-10.6-1.54-15.45,1.15-6-4.73-8.55-6.13-7.15,6-8.3,6.25S12.68,389.62,10,392.43c-1.84,1.92-6.95,2.34-10,2.42v4.59c3.07-.1,8-.55,9.74-2.42C12.42,394.21,25.19,399.06,26.34,398.81Z"/><path class="cls-3" d="M20,381.19a3.31,3.31,0,0,0-.69,1.52C21.33,384,20.68,382.36,20,381.19Z"/><path class="cls-3" d="M60.93,316.17s-12.82,6.63-9.25,14.94a15.47,15.47,0,0,1,4.22-5.45,5.62,5.62,0,0,1,.05-1.53c.28-1.22,2.27-1.49,4.46-1.67l.52-.29s-3-6.39,3.95-7.76c.73-1.48,3-2.18,5.08-2.51,2.18-2.09,2.57-4.81-.23-5.79A9.82,9.82,0,0,1,65,308.38C57.87,309.69,60.93,316.17,60.93,316.17Z"/><path class="cls-3" d="M21.78,350.52c5.11,3.39,11.24-5.29,16.68-3.16s10.9-1.23,14.3,1c2.9,1.86,6.53.91,2.94-5.18a4.53,4.53,0,0,1-2.94-.82c-3.4-2.19-8.85,1.17-14.3-1s-11.57,6.55-16.68,3.16-8.51-5.46-11.91-3.16c-1.72,1.16-6,2.82-9.87,4.18v6c3.85-1.36,8.15-3,9.87-4.18C13.27,345.06,16.68,347.13,21.78,350.52Z"/><path class="cls-3" d="M81.61,343.4c-5.49,1.66-3.44-5.87-8-5.36s-8.3,5-11,4.09c-1.87-.63-4.75-7.56-6-12.81a1.34,1.34,0,0,0-.6.81c-.76,3.32,4,17.1,6.64,18s6.39-3.58,11-4.09,2.55,7,8,5.36,6.9,3.07,13.54-.38c4.57-2.38,2.35-5.06,1.79-7.24A7.58,7.58,0,0,1,95.15,343C88.51,346.47,87.1,341.74,81.61,343.4Z"/><path class="cls-3" d="M98,333.19c-2.46,1.48-.18,3.69,0,6,3.44-2.07,7.27-6,4.4-10A13.84,13.84,0,0,1,98,333.19Z"/><path class="cls-3" d="M64.7,322c1.54-.39,2.41-1.17,1.58-2.91A2.66,2.66,0,0,0,64.7,322Z"/><path class="cls-8" d="M70.52,304.23,67,299.74a17,17,0,0,0-2,.15s-8.17,8.88-11.92,4.45-2-8.77-8.17-8.81S33,292.36,24.85,290.18s-10.21,8.11-15,5.35A104.73,104.73,0,0,0,0,290.73v54.81c3.85-1.36,8.15-3,9.87-4.18,3.4-2.3,6.81-.23,11.91,3.16s11.24-5.29,16.68-3.16,10.9-1.23,14.3,1a4.53,4.53,0,0,0,2.94.82c2-.3,2.69-3.09-2.6-9.69a10.61,10.61,0,0,1-1.42-2.34c-3.57-8.31,9.25-14.94,9.25-14.94s-3.06-6.48,4.09-7.79a9.82,9.82,0,0,0,4.71-2.27,6.61,6.61,0,0,0,1.51-1.88Z"/><path class="cls-8" d="M96.94,341.78a3.12,3.12,0,0,0,1-2.59h0A2,2,0,0,0,96.94,341.78Z"/><path class="cls-8" d="M101.15,321.83c-5-4.47-7.54-2.94-8.3-8.3s-7.8-8.17-13.22-4.85c0,0-.06,4.34-6.06,2.94a24.3,24.3,0,0,0-3.61.28c-2,.33-4.35,1-5.08,2.51-.43.88-.31,2,.78,3.59a7.24,7.24,0,0,1,.62,1c.83,1.74,0,2.52-1.58,2.91a27.74,27.74,0,0,1-4.29.51c-2.19.18-4.18.45-4.46,1.67a5.62,5.62,0,0,0-.05,1.53,22.07,22.07,0,0,0,.65,3.66c1.29,5.25,4.17,12.18,6,12.81,2.68.89,6.39-3.58,11-4.09s2.55,7,8,5.36,6.9,3.07,13.54-.38a7.58,7.58,0,0,0,1.79-1.24,2,2,0,0,1,1-2.59h0c-.19-2.31-2.47-4.52,0-6a13.84,13.84,0,0,0,4.41-4C103.78,327,104,324.39,101.15,321.83Z"/><path class="cls-8" d="M125.49,392.76a2.78,2.78,0,0,0,1.06-2.12,18,18,0,0,1-1-3.62A9.85,9.85,0,0,0,125.49,392.76Z"/><path class="cls-8" d="M125.93,377.23c-1.68.64-4.23,5.75-4.23,5.75a11.91,11.91,0,0,1-1.28-4.72c0-2.3-4.59,2.68-5.36,4.85s-2-1.92-4-2.68-3.7-4.34-3.7-4.34l-.89,7.27a18.89,18.89,0,0,0-3.13-3.32c-1.09-.64-1.34,3.32-1.34,3.32s-1.66-.76-3.83-4.21-.51,2.42-3.7,3.57c0,0-2.05-8.29-6.39-6.63s-6.76,9.31-6.76,9.31l-2.43-5.49-2.68,2.56-4.53-1.66-3.64,1.66-1.27-7.53-1.66,2.93s-1.79-1.66-1.66-1.27.65,3.82.9,5.41c.07.47.12.78.12.78l-.94.26-2,.57-.76-6H59l-1.79-2.68-1.36,8.8-3.49-3.19s1.4-5.1-2.3-2.55-4.59,8.43-8.55,6.51-2.43-9.06-7.28-6.89-1.53,9.57-10-.9c0,0-5-3.32-4.85,3.45,0,0,.3.46.6,1,.64,1.17,1.29,2.78-.69,1.52-.29-.19-.63-.42-1.06-.75-4.59-3.58-7.53-6.13-7.53-6.13a52.84,52.84,0,0,0-2.3,5.23,18.44,18.44,0,0,1,.17,3.42,3.13,3.13,0,0,1-.4,1.4c-.45.68-1.32.76-3-.6C3.13,383.49,1.32,382,0,381v13.85c3.05-.08,8.16-.5,10-2.42,2.68-2.81,15.44,2,16.59,1.78s5.75-7.66,8.3-6.25,3.7,8.81,8.55,6.13,15.45-1.15,15.45-1.15,5.49.25,9.32-1.28,3.19,7,8.68,2.55,11.49-3.7,12-2.42,4.21-3.32,10-.39,8.42,6.13,11.74,2.56c2.79-3,11.78,1.1,14.9-1.2a9.85,9.85,0,0,1,0-5.74,8.64,8.64,0,0,1,.28-4.68c.09-.2.17-.4.25-.6C127.23,378.74,127.51,376.63,125.93,377.23Z"/><rect class="cls-3" x="110.42" y="328.98" width="9.96" height="5"/><polygon class="cls-3" points="110.42 293.8 110.42 288.8 36.28 250.91 0 250.91 0 255.91 36.28 255.91 110.42 293.8"/><polygon class="cls-3" points="120.38 293.89 120.38 298.89 147.01 312.5 150.45 305.77 148.42 304.74 147.01 307.5 120.38 293.89"/><path class="cls-3" d="M71.24,304.23h7.58v-5h-8.3L65,292.15v5l2,2.59C71.49,299.71,72.43,302,71.24,304.23Z"/><path class="cls-3" d="M71.24,304.23c1.19-2.25.25-4.52-4.2-4.49l3.48,4.49Z"/><polygon class="cls-3" points="41.55 282.06 41.55 287.06 47.03 294.15 55.33 294.15 55.33 289.15 47.03 289.15 41.55 282.06"/><polygon class="cls-3" points="18.76 275.45 18.76 280.45 24.25 289.23 32.55 289.23 32.55 284.23 24.25 284.23 18.76 275.45"/><rect class="cls-3" y="280.85" width="8.93" height="5"/><polygon class="cls-4" points="42.6 245.66 39.59 244.12 37.14 242.87 37.14 242.81 37.03 242.81 36.98 242.78 36.97 242.81 35.22 242.81 25.88 242.81 0 242.81 0 243.34 0 246.34 0 247.13 0 247.81 0 250.13 0 250.91 36.28 250.91 110.42 288.8 110.42 293.8 110.42 328.98 120.38 328.98 120.38 298.89 120.38 293.89 147.01 307.5 148.42 304.74 150.45 300.77 42.6 245.66"/><polygon class="cls-4" points="87.31 287.11 87.31 302.11 92.8 309.19 101.1 309.19 101.1 293.55 93.76 287.11 87.31 287.11"/><polygon class="cls-4" points="71.48 277.15 65.03 277.15 65.03 282.15 65.03 292.15 70.53 299.23 78.82 299.23 78.82 288.6 78.82 283.6 71.48 277.15"/><polygon class="cls-4" points="47.99 267.06 41.55 267.06 41.55 272.06 41.55 282.06 47.03 289.15 55.33 289.15 55.33 278.51 55.33 273.51 47.99 267.06"/><polygon class="cls-4" points="25.21 256.85 18.76 256.85 18.76 261.85 18.76 275.45 24.25 284.23 32.55 284.23 32.55 269.84 32.55 264.84 25.21 256.85"/><polygon class="cls-4" points="0 257.23 0 262.23 0 280.85 8.93 280.85 8.93 262.23 8.93 257.23 0 257.23"/><rect class="cls-3" x="110.42" y="227.98" width="9.96" height="5"/><polygon class="cls-3" points="120.38 192.89 120.38 197.89 147.01 211.5 150.45 204.77 148.42 203.74 147.01 206.5 120.38 192.89"/><polygon class="cls-3" points="110.42 192.8 110.42 187.8 36.28 149.91 2.12 149.91 0 150.06 0 154.91 36.28 154.91 110.42 192.8"/><polygon class="cls-3" points="0 150.06 2.12 149.91 0 149.91 0 150.06"/><polygon class="cls-4" points="43.65 145.19 39.39 143.01 38.55 142.59 37.14 141.87 37.14 141.81 37.03 141.81 36.98 141.78 36.97 141.81 31.39 141.81 28.47 141.81 19.85 141.81 0 141.81 0 146.13 0 146.81 0 149.91 2.12 149.91 36.28 149.91 110.42 187.8 110.42 192.8 110.42 227.98 120.38 227.98 120.38 197.89 120.38 192.89 147.01 206.5 148.42 203.74 150.45 199.77 43.65 145.19"/><rect class="cls-3" x="571.68" y="328.98" width="9.96" height="5"/><polygon class="cls-3" points="545.05 307.5 543.64 304.74 541.61 305.77 545.05 312.5 571.68 298.89 571.68 293.89 545.05 307.5"/><polygon class="cls-3" points="655.78 250.91 581.64 288.8 581.64 293.8 655.78 255.91 693.04 255.91 693.04 250.91 655.78 250.91"/><path class="cls-3" d="M603.75,308.39l1-1.28v-5l-5.49,7.08H591v5h8.3l.86-1.12A7.14,7.14,0,0,1,603.75,308.39Z"/><path class="cls-3" d="M625,299.77l2-2.62v-5l-5.49,7.08h-8.29v5h8.29l.06-.07C620.54,302.08,621.31,300,625,299.77Z"/><polygon class="cls-3" points="650.51 287.06 650.51 282.06 645.02 289.15 636.73 289.15 636.73 294.15 645.02 294.15 650.51 287.06"/><polygon class="cls-3" points="673.3 280.45 673.3 275.45 667.81 284.23 659.51 284.23 659.51 289.23 667.81 289.23 673.3 280.45"/><rect class="cls-3" x="683.13" y="280.85" width="9.91" height="5"/><path class="cls-3" d="M673.52,382.71a3.31,3.31,0,0,0-.69-1.52C672.2,382.36,671.55,384,673.52,382.71Z"/><path class="cls-3" d="M684.66,385.66a5.43,5.43,0,0,0-.42-1.18,3.13,3.13,0,0,0,.4,1.4C684.65,385.77,684.66,385.7,684.66,385.66Z"/><path class="cls-3" d="M567.09,382.34c-.09-.2-.17-.4-.25-.6-1.25-.15-.79,2.14.5,5.2l0,.08A8.64,8.64,0,0,0,567.09,382.34Z"/><path class="cls-3" d="M629.3,383.05c.16-.95.3-1.73.34-1.86s-.64.36-1.16.82c-.07.47-.12.78-.12.78Z"/><path class="cls-3" d="M682.87,392.43c-2.68-2.81-15.44,2-16.59,1.78s-5.75-7.66-8.3-6.25-3.7,8.81-8.55,6.13S634,392.94,634,392.94s-5.49.25-9.32-1.28-3.19,7-8.68,2.55-11.49-3.7-12-2.42-4.21-3.32-10-.39-8.42,6.13-11.74,2.56c-2.79-3-11.78,1.1-14.9-1.2a16.62,16.62,0,0,1-.8,2.47c.51,6.26,12.63-.25,15.95,3.32s6,.39,11.75-2.55,9.45,1.66,10,.38,6.51-2,12,2.43,4.85-4.09,8.68-2.55,9.32,1.27,9.32,1.27,10.59-1.53,15.44,1.15,6-4.72,8.56-6.13,7.14,6,8.29,6.26,13.92-4.6,16.6-1.79c1.82,1.9,6.85,2.34,9.91,2.43v-4.59C690,394.79,684.74,394.38,682.87,392.43Z"/><path class="cls-3" d="M631.94,316.17s3.06-6.48-4.09-7.79a9.82,9.82,0,0,1-4.71-2.27c-2.8,1-2.41,3.7-.23,5.79,2.05.33,4.35,1,5.08,2.51,7,1.37,4,7.76,4,7.76s.2.1.52.29c2.19.18,4.18.45,4.46,1.67a5.62,5.62,0,0,1,.05,1.53,15.47,15.47,0,0,1,4.22,5.45C644.76,322.8,631.94,316.17,631.94,316.17Z"/><path class="cls-3" d="M683,341.36c-3.4-2.3-6.81-.23-11.91,3.16s-11.24-5.29-16.68-3.16-10.9-1.23-14.3,1a4.53,4.53,0,0,1-2.94.82c-3.59,6.09,0,7,2.94,5.18,3.4-2.19,8.85,1.17,14.3-1s11.57,6.55,16.68,3.16,8.51-5.46,11.91-3.16c1.74,1.18,6.15,2.87,10,4.24v-6C689.15,344.23,684.74,342.54,683,341.36Z"/><path class="cls-3" d="M626.59,319c-.83,1.74,0,2.52,1.58,2.91A2.66,2.66,0,0,0,626.59,319Z"/><path class="cls-3" d="M594.92,333.19a14,14,0,0,1-4.41-4c-2.86,4,1,7.93,4.4,10C595.1,336.88,597.38,334.67,594.92,333.19Z"/><path class="cls-3" d="M630.28,342.13c-2.68.89-6.38-3.58-11-4.09s-2.55,7-8,5.36-6.9,3.07-13.53-.38a7.46,7.46,0,0,1-1.8-1.24c-.56,2.18-2.78,4.86,1.8,7.24,6.63,3.45,8-1.28,13.53.38s3.44-5.87,8-5.36,8.3,5,11,4.09,7.4-14.68,6.64-18a1.34,1.34,0,0,0-.6-.81C635,334.57,632.15,341.5,630.28,342.13Z"/><path class="cls-8" d="M683,295.53c-4.76,2.76-6.81-7.53-15-5.35s-13.95,5.31-20.08,5.35-4.43,4.38-8.17,8.81-11.92-4.45-11.92-4.45a13.68,13.68,0,0,0-2.85-.12c-3.69.24-4.46,2.31-3.41,4.39a6.86,6.86,0,0,0,1.55,1.95,9.82,9.82,0,0,0,4.71,2.27c7.15,1.31,4.09,7.79,4.09,7.79s12.82,6.63,9.25,14.94a10.61,10.61,0,0,1-1.42,2.34c-5.29,6.6-4.64,9.39-2.6,9.69a4.53,4.53,0,0,0,2.94-.82c3.4-2.19,8.85,1.17,14.3-1s11.57,6.55,16.68,3.16,8.51-5.46,11.91-3.16c1.74,1.18,6.15,2.87,10,4.24V290.66A105,105,0,0,0,683,295.53Z"/><path class="cls-8" d="M594.92,339.19h0a3.12,3.12,0,0,0,1,2.59A2,2,0,0,0,594.92,339.19Z"/><path class="cls-8" d="M636.92,324.13c-.28-1.22-2.27-1.49-4.46-1.67a27.74,27.74,0,0,1-4.29-.51c-1.54-.39-2.41-1.17-1.58-2.91a7.24,7.24,0,0,1,.62-1c1.09-1.54,1.21-2.71.78-3.59-.73-1.48-3-2.18-5.08-2.51a24.3,24.3,0,0,0-3.61-.28c-6,1.4-6.06-2.94-6.06-2.94a9.47,9.47,0,0,0-9.49-.29,7.14,7.14,0,0,0-3.63,4.68c0,.16-.07.3-.1.46-.76,5.36-3.32,3.83-8.29,8.3-2.86,2.56-2.64,5.17-1.22,7.36a14,14,0,0,0,4.41,4c2.46,1.48.18,3.69,0,6h0a2,2,0,0,1,1,2.59,7.46,7.46,0,0,0,1.8,1.24c6.63,3.45,8-1.28,13.53.38s3.44-5.87,8-5.36,8.3,5,11,4.09c1.87-.63,4.75-7.56,6-12.81a22.07,22.07,0,0,0,.65-3.66A5.62,5.62,0,0,0,636.92,324.13Z"/><path class="cls-8" d="M687.6,385.28c-1.64,1.36-2.51,1.28-3,.6a3.13,3.13,0,0,1-.4-1.4,18.44,18.44,0,0,1,.17-3.42,52.84,52.84,0,0,0-2.3-5.23s-2.94,2.55-7.53,6.13c-.43.33-.77.56-1.06.75-2,1.26-1.32-.35-.69-1.52.3-.56.6-1,.6-1,.12-6.77-4.85-3.45-4.85-3.45-8.43,10.47-5.11,3.07-10,.9s-3.32,5-7.28,6.89-4.85-4-8.55-6.51-2.3,2.55-2.3,2.55L637,383.74l-1.36-8.8-1.79,2.68h-1.78l-.77,6-2-.57-.94-.26s0-.31.12-.78c.25-1.59.81-5.12.9-5.41s-1.65,1.27-1.65,1.27l-1.66-2.93-1.28,7.53-3.64-1.66-4.53,1.66-2.68-2.56-2.43,5.49s-2.42-7.66-6.76-9.31-6.39,6.63-6.39,6.63c-3.19-1.15-1.53-7-3.7-3.57s-3.83,4.21-3.83,4.21-.25-4-1.34-3.32a18.89,18.89,0,0,0-3.13,3.32l-.89-7.27s-1.79,3.57-3.7,4.34-3.19,4.85-4,2.68-5.36-7.15-5.36-4.85a11.91,11.91,0,0,1-1.28,4.72s-2.55-5.11-4.23-5.75-1.3,1.51-.1,4.51c.08.2.16.4.25.6a8.64,8.64,0,0,1,.28,4.68,18,18,0,0,1-1,3.62,2.78,2.78,0,0,0,1.06,2.12c3.12,2.3,12.11-1.8,14.9,1.2,3.32,3.57,6,.38,11.74-2.56s9.45,1.66,10,.39,6.51-2.05,12,2.42,4.85-4.08,8.68-2.55,9.32,1.28,9.32,1.28,10.6-1.54,15.45,1.15,6-4.73,8.55-6.13,7.15,6,8.3,6.25,13.91-4.59,16.59-1.78c1.87,1.95,7.15,2.36,10.17,2.43v-14C691.71,381.91,689.84,383.41,687.6,385.28Z"/><path class="cls-4" d="M679.79,245.13a53.38,53.38,0,0,1-16.32-1.81c-.53-.15-1.06-.33-1.58-.51h-6.8v0l-.05,0h-.11v.06l-.24.12L541.61,300.77l2,4,1.41,2.76,26.63-13.61V329h10V288.8l74.14-37.89H693v-7.55A70.18,70.18,0,0,1,679.79,245.13Z"/><polygon class="cls-4" points="598.3 287.11 590.96 293.55 590.96 298.55 590.96 309.19 599.26 309.19 604.75 302.11 604.75 292.11 604.75 287.11 598.3 287.11"/><polygon class="cls-4" points="620.58 277.15 613.24 283.6 613.24 288.6 613.24 299.23 621.53 299.23 627.02 292.15 627.02 282.15 627.02 277.15 620.58 277.15"/><polygon class="cls-4" points="644.07 267.06 636.73 273.51 636.73 278.51 636.73 289.15 645.02 289.15 650.51 282.06 650.51 272.06 650.51 267.06 644.07 267.06"/><polygon class="cls-4" points="666.85 256.85 659.51 264.84 659.51 269.5 659.51 269.84 659.51 283.89 667.81 283.89 673.3 275.11 673.3 261.85 673.3 261.51 673.3 256.85 666.85 256.85"/><polygon class="cls-4" points="683.13 257.23 683.13 262.23 683.13 280.85 693.04 280.85 693.04 262.23 693.04 257.23 683.13 257.23"/><polygon class="cls-3" points="655.78 149.91 581.64 187.8 581.64 192.8 655.78 154.91 693.04 154.91 693.04 149.91 655.78 149.91"/><polygon class="cls-3" points="545.05 206.5 543.64 203.74 541.61 204.77 545.05 211.5 571.68 197.89 571.68 192.89 545.05 206.5"/><rect class="cls-3" x="571.68" y="227.98" width="9.96" height="5"/><path class="cls-4" d="M689.9,146.06c1,.19,2.07.35,3.14.49h0Z"/><path class="cls-3" d="M641.13,30.64c-3.58,2.3-10.21,0-10.21,0s-9.19,2.55-7.41-2.3S627.09,22,620.7,22s-3.83-3.07-7.66-6.13.26-6.64-2.8-9.45l-2-1.87-3.32,1.85,3.07,2.81c3.06,2.81-1,6.38,2.81,9.45s1.27,6.12,7.66,6.12,4.59,1.54,2.8,6.39,7.41,2.3,7.41,2.3,6.64,2.29,10.21,0,4.6-2.3,4.6-2.3l6.64,2.3L652,30.49l-6.22-2.15S644.7,28.34,641.13,30.64Z"/><path class="cls-3" d="M677,22.83c1.12-.73,2.57-1.52,4.18-2.43,3.59-2,5.21-2.06,5.9-4.64-.9.49-2.07,1-3.6,1.86C679.74,19.74,676.84,21.21,677,22.83Z"/><path class="cls-3" d="M667.43,29.62l.14.11c.8-.93,2.26-2.08,3.94-.9,2.31,1.61,3.77-.52,3.47-2.26a3,3,0,0,1-1.17-.53c-2.55-1.78-4.6,1.79-4.6,1.79L663.85,25l-4.08,3.83-5.11-1.79L652.78,30l4.69,1.64,4.08-3.83,3.35,1.75A1.84,1.84,0,0,1,667.43,29.62Z"/><path class="cls-3" d="M689.66,39.06s-9.72,4.09-13.3,2.3-7.66,0-11.49,2-5.87-3.06-12.25-2c-6,1-10.67,1-11.4,4.66,2.07-1,5.31-1.26,9.1-1.87,6.38-1,8.43,4.08,12.26,2s7.91-3.83,11.49-2,13.3-2.3,13.3-2.3l5.67.92V39.61Z"/><path class="cls-3" d="M686.83,26.81a7,7,0,0,1,0-3.34h-.47s-2.61,1.68-1.87,5.71C686.26,29.08,687.51,29.7,686.83,26.81Z"/><path class="cls-3" d="M625.55,46.72c-3.31-3.83-9.7-6.38-13.53-7.91-3.65-1.46-16.38-4.09-17.3-11.22a9.7,9.7,0,0,0-2.36,1.75c-.25,7.92,13.54,10.72,17.37,12.26s10.21,4.08,13.53,7.91,15.32,4.34,15.57,0c0-.12,0-.23,0-.35C635.18,50.57,628,49.55,625.55,46.72Z"/><polygon class="cls-8" points="651.95 30.5 652.36 30.64 652.78 30 652.36 29.85 651.95 30.5"/><path class="cls-8" d="M685,2.79C683.6,1.15,682.49,0,682.49,0H613.55l-5,2.79-1.41.78,1,.94,2,1.87c3.06,2.81-1,6.39,2.8,9.45S614.32,22,620.7,22s4.6,1.53,2.81,6.38,7.41,2.3,7.41,2.3,6.63,2.3,10.21,0,4.6-2.3,4.6-2.3L652,30.49l.41-.64.42.15,1.88-2.94,5.11,1.79L663.85,25l5.36,2.81s2-3.57,4.6-1.79a3,3,0,0,0,1.17.53c1.82.35,2.79-1.84,2.15-3.34a1.12,1.12,0,0,1-.1-.4c-.19-1.62,2.71-3.09,6.48-5.21,1.53-.86,2.7-1.37,3.6-1.86,1.49-.82,2.21-1.62,2.53-4S687.14,5.44,685,2.79Z"/><path class="cls-8" d="M688.62,20.68a4.87,4.87,0,0,0-1.83,2.79,7,7,0,0,0,0,3.34c.68,2.89-.57,2.27-2.38,2.37a4.44,4.44,0,0,0-3,1.2c-3.06,2.81-3.83,0-7.15,1.28s-3.82.28-6.75-1.93l-.14-.11a1.84,1.84,0,0,0-2.53-.06c-1.25,1-2.1,3.26-3.6,2.58-2.3-1.05-2.3-.74-4.85,1.82s-5.87,2.3-10,0-3.83.25-5.62,0-8.17,3.32-14,5.61-4.59-3.57-7.4-6.38-.26,1.28-4.34,1.28-10.47-6.9-13.54-9.45-6.89,1.53-6.89,1.53a7.09,7.09,0,0,0,.06,1c.92,7.13,13.65,9.76,17.3,11.22,3.83,1.53,10.22,4.08,13.53,7.91,2.46,2.83,9.63,3.85,13.33,2.44,1.31-.5,2.18-1.3,2.25-2.44a5,5,0,0,1,.09-.7c.73-3.64,5.38-3.7,11.4-4.66,6.38-1,8.42,4.09,12.25,2s7.92-3.83,11.49-2,13.3-2.3,13.3-2.3l3.38.55V20.68Z"/><polygon class="cls-9" points="107.99 114.67 107.98 114.67 106.56 115.7 107.99 114.67"/><polygon class="cls-9" points="32.11 9.14 0 53.8 0 56.88 0 61.8 0 65.81 32.11 21.62 102.38 118.34 102.56 118.58 106.56 115.7 106.56 115.7 107.98 114.67 32.11 9.14"/><rect class="cls-6" x="65.13" y="45.96" width="18.72" height="5.28"/><rect class="cls-6" x="71" y="54.96" width="12.85" height="5.28"/><rect class="cls-6" x="77.43" y="63.96" width="6.43" height="5.28"/><rect class="cls-6" x="81.73" y="71.96" width="2.13" height="5.28"/><path class="cls-6" d="M8.51,128c-.86.19-1.42.34-1.42.34Z"/><path class="cls-5" d="M692.37,228.42c-1,.4-2,.76-2.87,1.07a23.63,23.63,0,0,0,2.82-.17Z"/><path class="cls-5" d="M647.42,191.55c-2.93,0-5.3,3.43-5.3,7.66a10.69,10.69,0,0,0,.19,2c.61,3.26,2.66,5.66,5.11,5.66s4.5-2.4,5.1-5.66a10.69,10.69,0,0,0,.19-2C652.71,195,650.34,191.55,647.42,191.55Z"/><path class="cls-6" d="M657.85,172.47c-1.53-1.79-5.14,2.42-5.14,2.42a6.87,6.87,0,0,0-3.41-7.4c-5.89.1-8.61,10.31-9.55,15a13.41,13.41,0,0,1,1.21-.81,13.55,13.55,0,0,1,7.7-2,16.14,16.14,0,0,1,8.42,3.2,30.45,30.45,0,0,0,1.15-5.57C658.48,175.18,658.45,173.17,657.85,172.47Z"/><path class="cls-6" d="M635,205.64c-.66.36-1.45.82-2.26,1.37-2.18,1.48-4.48,3.61-4.54,6a9.77,9.77,0,0,0,.27,2.65,6.28,6.28,0,0,0,6.24,5.16c1.12,0,1.76-1.3,2.1-3.15a23.07,23.07,0,0,0,.31-3.07A35.24,35.24,0,0,1,635,205.64Z"/><path class="cls-5" d="M679.73,241.13a39.78,39.78,0,0,1-7.78-1.21A18.56,18.56,0,0,0,679.73,241.13Z"/><path class="cls-5" d="M692.32,229.32a23.63,23.63,0,0,1-2.82.17c-22,7.34-24.37-11.45-24.37-11.45a32.16,32.16,0,0,0-.24,6.51c1.42,19.39,24.72,11,28.15,9.62v-6c-.22.1-.44.18-.67.27Z"/><path class="cls-5" d="M687.73,205.91l-.21.28c-1.93,2.61-5,8.92-7.84,9a20.5,20.5,0,0,1,4.29.37c1.66.36,3.19,1.07,3.24,2.44,0,1.08-.81,1.67-2.05,1.9a11.17,11.17,0,0,1-7.78-1.9A10.11,10.11,0,0,0,682.5,224c2.23,1.16,5.38,1.88,9.82,1.35L693,213.1v-7.42C692,205.13,689.25,204,687.73,205.91Z"/><path class="cls-5" d="M680.28,198.9a22.46,22.46,0,0,0,.3,2.42h-.37c-8.57.61-13.17-7.8-13.17-7.8a42.8,42.8,0,0,0-9.13-10c-.28-.2-.55-.41-.83-.6a16.14,16.14,0,0,0-8.42-3.2,13.55,13.55,0,0,0-7.7,2,13.41,13.41,0,0,0-1.21.81,16.91,16.91,0,0,0-5,6.17l-9.45,2.81,4.27,2.73,2.11,1.35L629,197.86l-4.48,3.84,3.94.63,6.53,1a16,16,0,0,0,0,2.28,35.24,35.24,0,0,0,2.12,9c3.9,10.85,12.81,23.94,24.73,28.18.52.18,1.05.36,1.58.51a53.38,53.38,0,0,0,16.32,1.81A70.18,70.18,0,0,0,693,243.36v-2.64a85.7,85.7,0,0,1-13.31.41,18.56,18.56,0,0,1-7.78-1.21c-7.79-2.08-13.67-6.71-22.52-14.47a33.31,33.31,0,0,1-10.91-22.91c-.57-9.29,2.84-17.17,8.61-17.66,10.63-.9,15.06,13.38,22,19.25s13.4,1,17.61-1.53c2.63-1.6,5-.36,6.34.8V184.82C680.45,182.69,679.89,193.82,680.28,198.9Z"/><path class="cls-3" d="M323.33,403a7.21,7.21,0,0,1,3.36-6.41,30.61,30.61,0,0,0-3.44.56A13.08,13.08,0,0,0,323.33,403Z"/><path class="cls-3" d="M235.7,395.64a18.05,18.05,0,0,0-4.34-.34s4.22,2.52,5.84,5.64C237.9,399.1,237,397.22,235.7,395.64Z"/><path class="cls-3" d="M311.17,407c-1.62-.48-5-.54-6.17,0s-3.45-1.82-4-3.1-4.73,3.21-4.73,3.21a79.48,79.48,0,0,1-8.18,3.13.33.33,0,0,1,.06.5c-.74.89-1.82,3.47,0,3.2s8.49-3.19,8.49-3.19,4.14-4.48,4.73-3.21,2.89,3.64,4,3.1,4.55-.48,6.17,0,11.41,1.5,11.41,1.5l1.22-3.83a16.17,16.17,0,0,1-.66-2.72l-.93,2.91S312.79,407.49,311.17,407Z"/><path class="cls-3" d="M287.74,407.11c.73-.88-3-1.66-7.38-1.41S276,409,271.18,410s-6.65-1-13.54-3.06-8.17,3.06-8.17,3.06l-2.95-4-5.09,2.17-4.4-2.7a7.42,7.42,0,0,1-2.33,2l7.1,4.34,5.09-2.17,3,4s1.28-5.11,8.17-3.06,8.7,4.08,13.54,3.06,4.84-4.09,9.18-4.34a22.64,22.64,0,0,1,6,.37A4.33,4.33,0,0,1,287.74,407.11Z"/><path class="cls-3" d="M291.65,398.78c.06-.65.16-1.37.32-2.21.3-1.6,0-2.34-.56-2.51C291,396.55,291.18,398,291.65,398.78Z"/><path class="cls-8" d="M323.51,405.6l.29-.92a15.71,15.71,0,0,1-.47-1.7A14.45,14.45,0,0,0,323.51,405.6Z"/><path class="cls-8" d="M237.2,400.94a6.29,6.29,0,0,1-2.87,3l2.7,1.65A4.15,4.15,0,0,0,237.2,400.94Z"/><path class="cls-8" d="M287.74,410.31l.31-.06a3.32,3.32,0,0,0-1.29-.54C286.81,410.14,287.09,410.41,287.74,410.31Z"/><path class="cls-3" d="M404.48,405.75c.74-.88-3-1.66-7.37-1.41s-4.34,3.32-9.18,4.34-6.65-1-13.55-3.06-8.17,3.06-8.17,3.06l-2.95-4-5.09,2.17-4.4-2.69a7.76,7.76,0,0,1-2.32,2l7.09,4.34,5.09-2.17,2.95,4s1.28-5.11,8.17-3.07,8.71,4.09,13.55,3.07,4.84-4.09,9.18-4.34a22.18,22.18,0,0,1,6,.37A4.4,4.4,0,0,1,404.48,405.75Z"/><path class="cls-3" d="M440.07,401.62a7.22,7.22,0,0,1,3.36-6.41,31.86,31.86,0,0,0-3.44.55A13.12,13.12,0,0,0,440.07,401.62Z"/><path class="cls-3" d="M408.39,397.42c.07-.65.16-1.37.32-2.21.3-1.6,0-2.34-.56-2.51C407.78,395.19,407.92,396.63,408.39,397.42Z"/><path class="cls-3" d="M352.44,394.28a18.05,18.05,0,0,0-4.34-.34s4.22,2.52,5.84,5.64C354.65,397.74,353.75,395.86,352.44,394.28Z"/><path class="cls-3" d="M427.91,405.65c-1.62-.48-5-.54-6.17,0s-3.44-1.82-4-3.1-4.73,3.21-4.73,3.21a79.48,79.48,0,0,1-8.18,3.13c.17.16.21.33.06.5-.73.89-1.82,3.47,0,3.2s8.49-3.19,8.49-3.19,4.14-4.49,4.73-3.21,2.89,3.64,4,3.1,4.55-.48,6.17,0,11.41,1.5,11.41,1.5l1.22-3.83a16.47,16.47,0,0,1-.66-2.73l-.93,2.92S429.53,406.13,427.91,405.65Z"/><path class="cls-8" d="M404.48,409l.31-.06a3.18,3.18,0,0,0-1.29-.54C403.55,408.78,403.83,409.05,404.48,409Z"/><path class="cls-8" d="M440.25,404.23l.29-.91a16.62,16.62,0,0,1-.47-1.7A15.21,15.21,0,0,0,440.25,404.23Z"/><path class="cls-8" d="M443.06,391.57s-8.55.77-10.27,4.09-4.88-1.48-4.88-1.48-4.11,1.73-4.05,2.76-5.68,0-5.62-1.54-2.17,1.54-5.27,2.3c-1.88.47-3.75,1.11-4.58-.28-.47-.79-.61-2.23-.24-4.72.06-.36.11-.72.19-1.13,1.53-8.17-11.27,5.88-11.27,5.88s-1.58,2.29-7.79-5.88c0,0-5.71,9.3-10.56,7.2s-7.15-8.73-7.15-8.73,1.54,6.13-2.29,6.13-8.17-3.83-8.17-3.83l-4.34,3.06s.82-5.36-9-5.1a20.9,20.9,0,0,1,4.71,4c1.31,1.58,2.21,3.46,1.5,5.3a6.25,6.25,0,0,1-2.87,3l2.7,1.65,4.4,2.69,5.09-2.17,2.95,4s1.28-5.11,8.17-3.06,8.7,4.08,13.55,3.06,4.84-4.08,9.18-4.34,8.11.53,7.37,1.41a4.4,4.4,0,0,0-1,2.6,3.18,3.18,0,0,1,1.29.54,79.48,79.48,0,0,0,8.18-3.13s4.14-4.48,4.73-3.21,2.89,3.64,4,3.1,4.55-.48,6.17,0,11.41,1.5,11.41,1.5l.93-2.92a15.21,15.21,0,0,1-.18-2.61,13.12,13.12,0,0,1-.08-5.86A6.61,6.61,0,0,1,443.06,391.57Z"/><path class="cls-3" d="M454.43,382.9c.73-.88-3-1.67-7.38-1.41s-4.34,3.32-9.18,4.34-6.65-1-13.54-3.06c-3.79-1.13-5.89-.09-7,1.07a1.86,1.86,0,0,1-2.83-.24l-.42-.56a1.86,1.86,0,0,0-2.22-.59L409,383.67a1.86,1.86,0,0,1-1.7-.13l-3.59-2.19a5.84,5.84,0,0,1-.4.5,1.87,1.87,0,0,0,.35,2.88l4,2.45a1.86,1.86,0,0,0,1.7.12l2.86-1.22a1.86,1.86,0,0,1,2.22.6l.42.56a1.88,1.88,0,0,0,2.83.24c1.12-1.16,3.21-2.2,7-1.08,6.89,2.05,8.7,4.09,13.54,3.07s4.84-4.09,9.18-4.34a22.12,22.12,0,0,1,6,.37A4.35,4.35,0,0,1,454.43,382.9Z"/><path class="cls-3" d="M490.2,381.38l-.47,1.47a1.86,1.86,0,0,1-2,1.29c-2.81-.31-8.68-1-9.9-1.34-1.63-.48-5-.54-6.17,0s-3.45-1.82-4-3.1c-.51-1.08-3.58,2-4.48,2.95a1.78,1.78,0,0,1-.6.41,72.39,72.39,0,0,1-7.83,3,.33.33,0,0,1,.06.5c-.74.88-1.82,3.47,0,3.2,1.56-.24,6.75-2.44,8.14-3a1.81,1.81,0,0,0,.6-.42c.9-.94,4-4,4.48-2.94.59,1.28,2.88,3.64,4,3.09s4.55-.47,6.17,0c1.22.37,7.09,1,9.9,1.34a1.85,1.85,0,0,0,2-1.28l.58-1.82a1.81,1.81,0,0,0,0-1.08A16.42,16.42,0,0,1,490.2,381.38Z"/><path class="cls-3" d="M458.34,374.57c.06-.65.16-1.37.32-2.21.3-1.6,0-2.34-.56-2.51C457.73,372.34,457.87,373.78,458.34,374.57Z"/><path class="cls-3" d="M490,378.79a9.44,9.44,0,0,1,.55-3.08,1.81,1.81,0,0,0-.75-2.18A13.59,13.59,0,0,0,490,378.79Z"/><path class="cls-3" d="M403.64,373.35a1.75,1.75,0,0,0-.34,2.42,7.9,7.9,0,0,1,.58,1A4.2,4.2,0,0,0,403.64,373.35Z"/><path class="cls-8" d="M454.43,386.1l.31-.06a3.17,3.17,0,0,0-1.3-.54C453.5,385.93,453.78,386.2,454.43,386.1Z"/><path class="cls-8" d="M490.2,381.38l.11-.35a1.81,1.81,0,0,0,0-1.08c-.08-.28-.19-.69-.3-1.16A14,14,0,0,0,490.2,381.38Z"/><path class="cls-8" d="M403.88,376.73a4.59,4.59,0,0,1-.94,1.48,1.86,1.86,0,0,0,.35,2.88l.42.26A4.13,4.13,0,0,0,403.88,376.73Z"/><path class="cls-8" d="M490.2,372.07a1.85,1.85,0,0,0-2.24-2.4c-2.19.62-4.43,1.61-5.23,3.14-1.17,2.26-3,.76-4.06-.43a1.83,1.83,0,0,0-2.19-.41c-1.19.6-2.71,1.49-2.68,2.12.06,1-5.68,0-5.62-1.54s-2.16,1.54-5.26,2.3c-1.89.47-3.75,1.11-4.58-.28-.47-.79-.61-2.23-.24-4.72,0-.36.11-.72.19-1.13,1.53-8.17-11.28,5.88-11.28,5.88s-1.31,1.91-6.26-4a1.86,1.86,0,0,0-2.9,0c-2,2.61-5.79,6.71-9.18,5.24a11.33,11.33,0,0,1-4.45-3.75,1.84,1.84,0,0,0-3,.19,2.24,2.24,0,0,1-2,1c-2.68,0-5.61-1.88-7.13-3a1.88,1.88,0,0,0-2.19,0l-1,.7a1.85,1.85,0,0,1-2.68-.59,3.77,3.77,0,0,0-.34-.51c-1.43-1.83-4.3.33-3,2.24a7.09,7.09,0,0,1,.71,1.21,4.2,4.2,0,0,1,.24,3.38,4.13,4.13,0,0,1-.17,4.62l3.59,2.19a1.86,1.86,0,0,0,1.7.13l2.86-1.22a1.86,1.86,0,0,1,2.22.59l.42.56a1.86,1.86,0,0,0,2.83.24c1.11-1.16,3.21-2.2,7-1.07,6.89,2,8.7,4.08,13.54,3.06s4.84-4.09,9.18-4.34,8.11.53,7.38,1.41a4.35,4.35,0,0,0-1,2.6,3.17,3.17,0,0,1,1.3.54,72.39,72.39,0,0,0,7.83-3,1.78,1.78,0,0,0,.6-.41c.9-.95,4-4,4.48-2.95.59,1.28,2.88,3.64,4,3.1s4.54-.48,6.17,0c1.22.36,7.09,1,9.9,1.34a1.86,1.86,0,0,0,2-1.29l.47-1.47a14,14,0,0,1-.18-2.59,13.59,13.59,0,0,1-.2-5.26A8.48,8.48,0,0,1,490.2,372.07Z"/><path class="cls-3" d="M235.35,388.74c4.84-1,4.84-4.08,9.18-4.34a22.06,22.06,0,0,1,6,.38,4.37,4.37,0,0,1,1-2.6c.74-.89-3-1.67-7.37-1.41s-4.34,3.32-9.18,4.34-6.65-1-13.55-3.07c-3.79-1.12-5.88-.08-7,1.08a1.89,1.89,0,0,1-2.84-.24l-.42-.56a1.85,1.85,0,0,0-2.21-.6l-2.87,1.22a1.86,1.86,0,0,1-1.7-.12l-3.58-2.2a3.74,3.74,0,0,1-.41.5,1.87,1.87,0,0,0,.36,2.88l4,2.46a1.84,1.84,0,0,0,1.69.12l2.87-1.22a1.86,1.86,0,0,1,2.22.6l.41.56a1.89,1.89,0,0,0,2.84.24c1.11-1.16,3.2-2.2,7-1.08C228.7,387.72,230.51,389.77,235.35,388.74Z"/><path class="cls-3" d="M200.75,372.62a1.75,1.75,0,0,0-.34,2.43,7.9,7.9,0,0,1,.58,1A4.27,4.27,0,0,0,200.75,372.62Z"/><path class="cls-3" d="M284.86,383.41c-2.81-.3-8.67-1-9.9-1.34-1.62-.48-5-.54-6.17,0s-3.44-1.81-4-3.09c-.51-1.09-3.58,2-4.49,2.94a1.87,1.87,0,0,1-.59.42,75.62,75.62,0,0,1-7.84,3,.32.32,0,0,1,.06.5c-.73.88-1.81,3.47,0,3.2,1.57-.24,6.75-2.44,8.15-3a1.92,1.92,0,0,0,.6-.42c.9-.94,4-4,4.48-2.94.59,1.27,2.88,3.63,4,3.09s4.55-.48,6.17,0c1.23.36,7.09,1,9.9,1.34a1.84,1.84,0,0,0,2-1.28l.58-1.82a1.81,1.81,0,0,0,0-1.08,18.25,18.25,0,0,1-.5-2.21l-.47,1.47A1.85,1.85,0,0,1,284.86,383.41Z"/><path class="cls-3" d="M287.13,378.07a9.44,9.44,0,0,1,.55-3.08,1.83,1.83,0,0,0-.76-2.19A13.82,13.82,0,0,0,287.13,378.07Z"/><path class="cls-3" d="M255.44,373.84c.07-.65.17-1.36.32-2.2.3-1.61.05-2.35-.55-2.51C254.83,371.62,255,373.06,255.44,373.84Z"/><path class="cls-8" d="M287.3,380.66l.11-.35a1.81,1.81,0,0,0,0-1.08c-.09-.29-.2-.69-.3-1.16A15.09,15.09,0,0,0,287.3,380.66Z"/><path class="cls-8" d="M251.53,385.38l.31-.06a3,3,0,0,0-1.29-.54C250.61,385.2,250.88,385.48,251.53,385.38Z"/><path class="cls-8" d="M201,376a4.74,4.74,0,0,1-1,1.48,1.87,1.87,0,0,0,.36,2.88l.42.25A4.13,4.13,0,0,0,201,376Z"/><path class="cls-8" d="M326.32,392.94s-8.55.76-10.28,4.08-4.87-1.48-4.87-1.48-4.11,1.74-4.06,2.76-5.67,0-5.62-1.53-2.16,1.53-5.26,2.29c-1.88.47-3.75,1.11-4.58-.28-.47-.79-.61-2.23-.24-4.72.06-.36.11-.72.19-1.12,1.53-8.17-11.27,5.87-11.27,5.87s-1.59,2.3-7.8-5.87c0,0-5.7,9.29-10.55,7.2s-7.15-8.74-7.15-8.74,1.53,6.13-2.3,6.13-8.17-3.83-8.17-3.83L240,396.77s.83-5.37-9-5.11a21.14,21.14,0,0,1,4.71,4c1.31,1.58,2.2,3.46,1.5,5.3a4.15,4.15,0,0,1-.17,4.62l4.4,2.7,5.09-2.17,2.95,4s1.28-5.1,8.17-3.06,8.7,4.08,13.54,3.06,4.84-4.08,9.18-4.34,8.11.53,7.38,1.41a4.33,4.33,0,0,0-1,2.6,3.32,3.32,0,0,1,1.29.54,79.48,79.48,0,0,0,8.18-3.13s4.14-4.48,4.73-3.21,2.88,3.64,4,3.1,4.55-.48,6.17,0,11.41,1.5,11.41,1.5l.93-2.91a14.45,14.45,0,0,1-.18-2.62,13.08,13.08,0,0,1-.08-5.85A6.55,6.55,0,0,1,326.32,392.94Z"/><path class="cls-8" d="M235,385.11c4.84-1,4.84-4.09,9.18-4.34s8.11.52,7.37,1.41a4.37,4.37,0,0,0-1,2.6,3,3,0,0,1,1.29.54,75.62,75.62,0,0,0,7.84-3,1.87,1.87,0,0,0,.59-.42c.91-.94,4-4,4.49-2.94.59,1.28,2.88,3.64,4,3.09s4.55-.48,6.17,0c1.23.37,7.09,1,9.9,1.34a1.85,1.85,0,0,0,2-1.28l.47-1.47a15.09,15.09,0,0,1-.17-2.59,13.82,13.82,0,0,1-.21-5.27,8.18,8.18,0,0,1,.39-1.45,1.85,1.85,0,0,0-2.24-2.4c-2.19.62-4.44,1.61-5.23,3.14-1.17,2.25-3,.75-4.06-.44a1.84,1.84,0,0,0-2.2-.4c-1.18.6-2.71,1.49-2.67,2.11.06,1-5.68,0-5.62-1.53s-2.17,1.53-5.27,2.3c-1.88.46-3.74,1.1-4.58-.29-.47-.78-.61-2.22-.23-4.71,0-.36.11-.73.18-1.13,1.53-8.17-11.27,5.87-11.27,5.87s-1.32,1.92-6.27-4a1.86,1.86,0,0,0-2.89,0c-2,2.6-5.79,6.7-9.18,5.24a11.41,11.41,0,0,1-4.45-3.75,1.84,1.84,0,0,0-3,.19,2.23,2.23,0,0,1-2,1c-2.68,0-5.61-1.88-7.13-3a1.86,1.86,0,0,0-2.19,0l-1,.7a1.84,1.84,0,0,1-2.67-.6c-.1-.16-.21-.33-.34-.5a1.86,1.86,0,0,0-3,2.23,9.32,9.32,0,0,1,.71,1.21A4.27,4.27,0,0,1,201,376a4.13,4.13,0,0,1-.17,4.61l3.58,2.2a1.86,1.86,0,0,0,1.7.12l2.87-1.22a1.85,1.85,0,0,1,2.21.6l.42.56a1.89,1.89,0,0,0,2.84.24c1.11-1.16,3.2-2.2,7-1.08C228.33,384.09,230.14,386.13,235,385.11Z"/><path class="cls-4" d="M693,141.81H655.09v0l-.05,0h-.11v.06l-113.31,57.9,2,4,1.41,2.76,26.63-13.61V228h10V187.8l74.14-37.89h39.35v-3.09h-.06v0h.06v-5Z"/></svg>