<svg id="ципленок_бал" data-name="ципленок бал" xmlns="http://www.w3.org/2000/svg" width="44.18" height="37.1" viewBox="0 0 44.18 37.1"><defs><style>.cls-1{fill:#001055;}</style></defs><path class="cls-1" d="M197.22,11.47c-6.57-5.94-12.7-1.6-12.7-1.6l-6.64-.76-.51-3.9A14,14,0,0,0,183.18,4l6.32-2a75.08,75.08,0,0,0-9.64-6.51C174.69-7.43,169.77-5.32,169-2s1.47,4.4,2,6.45a5.56,5.56,0,0,1-.74,4.06c-3.75.68-6.59-2.89-6.59-2.89l-7.88,2.89c1.87,3.74,6.64,3.06,6.64,3.06l3.06,2.22L165,16.17l-6.64-2.38c-2.72.68-9.19,10.38-2.21,15.15s18.21-2.73,18.21-2.73h.3l2.17-.44c.89,2,5.62,5.55,11.94,5.42s9.25-6.38,8-9.77-8.24-7.78-8.24-7.78C194.41,14.47,197.22,11.47,197.22,11.47ZM170.16,25.64s-6.7,3.44-10.66,1-3-6.77.57-9.07l1.28,3.71,3.76-1.41.9,1.41,2.3-1.85-.39,3.38,2.24,1.28Zm23-2.68c.63,3.63-2.81,5.81-8.43,3.57l-4.53-1.08,2.11-1.92-2.11-3.83,4.59,1.92.71-2.37,2.29.39-.12-2.05S192.5,19.32,193.14,23Z" transform="translate(-153.05 5.91)"/></svg>